<svg width="32" height="32" viewBox="0 0 32 32" fill="none" xmlns="http://www.w3.org/2000/svg">
<path d="M15.9998 20.6667C14.7621 20.6667 13.5751 20.175 12.7 19.2999C11.8248 18.4247 11.3331 17.2377 11.3331 16C11.3331 14.7623 11.8248 13.5754 12.7 12.7002C13.5751 11.825 14.7621 11.3334 15.9998 11.3334C17.2375 11.3334 18.4244 11.825 19.2996 12.7002C20.1748 13.5754 20.6665 14.7623 20.6665 16C20.6665 17.2377 20.1748 18.4247 19.2996 19.2999C18.4244 20.175 17.2375 20.6667 15.9998 20.6667ZM25.9065 17.2934C25.9598 16.8667 25.9998 16.44 25.9998 16C25.9998 15.56 25.9598 15.12 25.9065 14.6667L28.7198 12.4934C28.9731 12.2934 29.0398 11.9334 28.8798 11.64L26.2131 7.02669C26.0531 6.73336 25.6931 6.61336 25.3998 6.73336L22.0798 8.06669C21.3865 7.54669 20.6665 7.09336 19.8265 6.76002L19.3331 3.22669C19.306 3.06965 19.2242 2.92726 19.1022 2.82476C18.9802 2.72226 18.8258 2.66626 18.6665 2.66669H13.3331C12.9998 2.66669 12.7198 2.90669 12.6665 3.22669L12.1731 6.76002C11.3331 7.09336 10.6131 7.54669 9.91979 8.06669L6.59979 6.73336C6.30645 6.61336 5.94645 6.73336 5.78645 7.02669L3.11979 11.64C2.94645 11.9334 3.02645 12.2934 3.27979 12.4934L6.09312 14.6667C6.03979 15.12 5.99979 15.56 5.99979 16C5.99979 16.44 6.03979 16.8667 6.09312 17.2934L3.27979 19.5067C3.02645 19.7067 2.94645 20.0667 3.11979 20.36L5.78645 24.9734C5.94645 25.2667 6.30645 25.3734 6.59979 25.2667L9.91979 23.92C10.6131 24.4534 11.3331 24.9067 12.1731 25.24L12.6665 28.7734C12.7198 29.0934 12.9998 29.3334 13.3331 29.3334H18.6665C18.9998 29.3334 19.2798 29.0934 19.3331 28.7734L19.8265 25.24C20.6665 24.8934 21.3865 24.4534 22.0798 23.92L25.3998 25.2667C25.6931 25.3734 26.0531 25.2667 26.2131 24.9734L28.8798 20.36C29.0398 20.0667 28.9731 19.7067 28.7198 19.5067L25.9065 17.2934Z" fill="black"/>
</svg>
