<svg width="32" height="25" viewBox="0 0 32 25" fill="none" xmlns="http://www.w3.org/2000/svg">
<path fill-rule="evenodd" clip-rule="evenodd" d="M25.572 0.345438C22.376 -0.258967 18.168 -0.338296 15.292 2.37397C15.1992 2.46184 15.1256 2.56611 15.0755 2.68084C15.0254 2.79557 14.9998 2.9185 15 3.0426V23.819C14.9996 24.0061 15.0581 24.189 15.168 24.3446C15.2778 24.5002 15.4341 24.6215 15.6171 24.6931C15.8 24.7647 16.0014 24.7835 16.1956 24.7469C16.3898 24.7103 16.5681 24.6201 16.708 24.4877C18.394 22.8935 20.938 22.4875 23.648 22.75C26.336 23.0144 28.968 23.9154 30.552 24.6633C30.7045 24.7355 30.8739 24.7696 31.0443 24.7625C31.2146 24.7553 31.3802 24.7072 31.5253 24.6226C31.6704 24.538 31.7902 24.4197 31.8733 24.2791C31.9564 24.1384 32 23.9801 32 23.819V3.0426C32 2.86736 31.9484 2.69558 31.8509 2.54648C31.7534 2.39737 31.6139 2.27682 31.448 2.19832L31 3.0426L31.448 2.19832L31.444 2.19643L31.436 2.19265L31.41 2.18132L31.316 2.13788C30.7913 1.90652 30.2583 1.69233 29.718 1.4957C28.3723 1.00396 26.9855 0.619208 25.572 0.345438V0.345438ZM30 3.647V22.3609C28.308 21.7131 26.112 21.0917 23.852 20.8726C21.566 20.6497 19.078 20.8291 17 21.9303V3.45435C19.126 1.69968 22.262 1.64869 25.18 2.20021C26.8363 2.5202 28.452 3.00518 30 3.647V3.647Z" fill="white"/>
<path fill-rule="evenodd" clip-rule="evenodd" d="M6.428 0.345438C9.626 -0.258967 13.832 -0.338296 16.708 2.37397C16.8008 2.46184 16.8744 2.56611 16.9245 2.68084C16.9746 2.79557 17.0002 2.9185 17 3.0426V23.819C17.0004 24.0061 16.9419 24.189 16.832 24.3446C16.7222 24.5002 16.5659 24.6215 16.3829 24.6931C16.2 24.7647 15.9986 24.7835 15.8044 24.7469C15.6102 24.7103 15.4319 24.6201 15.292 24.4877C13.606 22.8935 11.062 22.4875 8.352 22.75C5.664 23.0144 3.032 23.9154 1.448 24.6633C1.29554 24.7355 1.12608 24.7696 0.955719 24.7625C0.785358 24.7553 0.619758 24.7072 0.474657 24.6226C0.329556 24.538 0.209775 24.4197 0.126698 24.2791C0.0436199 24.1384 5.72227e-06 23.9801 0 23.819L0 3.0426C6.22667e-06 2.86736 0.0516407 2.69558 0.149127 2.54648C0.246613 2.39737 0.386106 2.27682 0.552 2.19832L1 3.0426L0.552 2.19832L0.556 2.19643L0.564 2.19265L0.59 2.18132C0.734983 2.11313 0.881692 2.04826 1.03 1.98678C2.76098 1.25471 4.57183 0.704296 6.43 0.345438H6.428Z" fill="white"/>
</svg>
