<svg width="18" height="25" viewBox="0 0 18 25" fill="none" xmlns="http://www.w3.org/2000/svg">
<path d="M2.25 25H15.75C16.3467 25 16.919 24.7366 17.341 24.2678C17.7629 23.7989 18 23.163 18 22.5V2.5C18 1.83696 17.7629 1.20107 17.341 0.732233C16.919 0.263392 16.3467 0 15.75 0H2.25C1.65326 0 1.08097 0.263392 0.65901 0.732233C0.237053 1.20107 0 1.83696 0 2.5V22.5C0 23.163 0.237053 23.7989 0.65901 24.2678C1.08097 24.7366 1.65326 25 2.25 25ZM5.625 21.25H3.375V18.75H5.625V21.25ZM5.625 16.25H3.375V13.75H5.625V16.25ZM5.625 11.25H3.375V8.75H5.625V11.25ZM10.125 21.25H7.875V18.75H10.125V21.25ZM10.125 16.25H7.875V13.75H10.125V16.25ZM10.125 11.25H7.875V8.75H10.125V11.25ZM14.625 21.25H12.375V13.75H14.625V21.25ZM14.625 11.25H12.375V8.75H14.625V11.25ZM2.25 2.5H15.75V6.25H2.25V2.5Z" fill="black"/>
</svg>
