<svg width="36" height="36" viewBox="0 0 36 36" fill="none" xmlns="http://www.w3.org/2000/svg">
<path d="M32.51 27.83C31.5457 26.9704 30.7015 25.9849 30 24.9C29.2343 23.4026 28.7753 21.7673 28.65 20.09V15.15C28.6567 12.5156 27.7011 9.9695 25.9628 7.99C24.2245 6.0105 21.8232 4.73389 19.21 4.40002V3.11002C19.21 2.75596 19.0694 2.4164 18.819 2.16604C18.5687 1.91568 18.2291 1.77502 17.875 1.77502C17.521 1.77502 17.1814 1.91568 16.9311 2.16604C16.6807 2.4164 16.54 2.75596 16.54 3.11002V4.42002C13.9503 4.77795 11.578 6.06228 9.86258 8.03513C8.14713 10.008 7.20478 12.5357 7.21005 15.15V20.09C7.0848 21.7673 6.62583 23.4026 5.86005 24.9C5.17093 25.9824 4.34024 26.9678 3.39005 27.83C3.28338 27.9237 3.19789 28.0391 3.13927 28.1684C3.08064 28.2977 3.05023 28.438 3.05005 28.58V29.94C3.05005 30.2052 3.15541 30.4596 3.34294 30.6471C3.53048 30.8347 3.78483 30.94 4.05005 30.94H31.85C32.1153 30.94 32.3696 30.8347 32.5572 30.6471C32.7447 30.4596 32.85 30.2052 32.85 29.94V28.58C32.8499 28.438 32.8195 28.2977 32.7608 28.1684C32.7022 28.0391 32.6167 27.9237 32.51 27.83ZM5.13005 28.94C6.06046 28.0412 6.87965 27.034 7.57005 25.94C8.53466 24.1315 9.09748 22.136 9.22005 20.09V15.15C9.18039 13.9781 9.37697 12.8101 9.79809 11.7157C10.2192 10.6213 10.8563 9.62281 11.6713 8.77973C12.4863 7.93664 13.4627 7.26619 14.5422 6.8083C15.6218 6.3504 16.7824 6.11443 17.955 6.11443C19.1277 6.11443 20.2883 6.3504 21.3679 6.8083C22.4474 7.26619 23.4238 7.93664 24.2388 8.77973C25.0538 9.62281 25.6909 10.6213 26.112 11.7157C26.5331 12.8101 26.7297 13.9781 26.6901 15.15V20.09C26.8126 22.136 27.3754 24.1315 28.34 25.94C29.0305 27.034 29.8496 28.0412 30.7801 28.94H5.13005Z" fill="black"/>
<path d="M18.0001 34.28C18.63 34.2655 19.2345 34.0287 19.7067 33.6114C20.1788 33.1942 20.4882 32.6234 20.5801 32H15.3201C15.4145 32.6403 15.7384 33.2245 16.2314 33.6439C16.7244 34.0633 17.3529 34.2894 18.0001 34.28Z" fill="black"/>
</svg>
