<svg width="31" height="26" viewBox="0 0 31 26" fill="none" xmlns="http://www.w3.org/2000/svg">
<path d="M28.897 18.5812C29.0295 17.8979 29.0396 17.1981 28.9268 16.511L30.1543 15.8054C30.2971 15.725 30.3608 15.5558 30.316 15.3947C30.015 14.3402 29.4862 13.3794 28.7899 12.5813C28.6832 12.4582 28.509 12.4264 28.3663 12.5068L27.1388 13.2123C26.6311 12.7525 26.0464 12.3936 25.4129 12.1506L25.4338 10.7024C25.4361 10.5372 25.325 10.3897 25.1698 10.3533C24.1213 10.0942 23.0503 10.0876 22.0469 10.3056C21.8907 10.3372 21.7754 10.4813 21.773 10.6465L21.7522 12.0947C21.112 12.3183 20.5172 12.6592 19.9965 13.1033L18.7898 12.3606C18.6542 12.2759 18.4745 12.3023 18.3643 12.4221C17.6453 13.1986 17.0891 14.1428 16.758 15.1877C16.7085 15.3474 16.7721 15.5185 16.9077 15.6032L18.1144 16.3458C17.9819 17.0292 17.9718 17.729 18.0846 18.4161L16.8571 19.1216C16.7143 19.2021 16.6506 19.3712 16.6954 19.5323C16.9964 20.5868 17.5253 21.5428 18.2215 22.3457C18.3282 22.4689 18.5024 22.5007 18.6451 22.4202L19.8726 21.7147C20.3803 22.1745 20.965 22.5334 21.5985 22.7764L21.5776 24.2246C21.5753 24.3899 21.6864 24.5374 21.8416 24.5738C22.8901 24.8328 23.9611 24.8395 24.9645 24.6215C25.1207 24.5898 25.236 24.4458 25.2384 24.2805L25.2592 22.8323C25.8994 22.6088 26.4942 22.2679 27.0149 21.8238L28.2216 22.5665C28.3572 22.6512 28.5369 22.6248 28.6471 22.5049C29.3661 21.7285 29.9223 20.7842 30.2534 19.7394C30.3029 19.5797 30.2393 19.4086 30.1037 19.3239L28.897 18.5812ZM23.4765 19.8206C22.2122 19.8013 21.2038 18.7262 21.2224 17.4287C21.2411 16.1311 22.2848 15.0874 23.5443 15.1066C24.8039 15.1259 25.8171 16.201 25.7984 17.4985C25.7797 18.7961 24.7408 19.8399 23.4765 19.8206ZM10.746 12.6023C14.0813 12.6532 16.8245 9.90988 16.8739 6.47405C16.9233 3.03821 14.2603 0.212299 10.925 0.161367C7.5898 0.110436 4.84661 2.85379 4.79717 6.28963C4.74773 9.72546 7.41077 12.5514 10.746 12.6023ZM20.0792 23.7546C19.9715 23.6946 19.864 23.6249 19.7611 23.5601L19.3852 23.778C19.0998 23.9389 18.7777 24.0263 18.4569 24.0214C17.9427 24.0136 17.4506 23.7825 17.1024 23.3883C16.2529 22.4129 15.6093 21.2316 15.2546 19.9769C15.0075 19.1128 15.3697 18.2094 16.131 17.7689L16.5069 17.5511C16.504 17.4247 16.5058 17.2983 16.5123 17.172L16.1429 16.9428C15.3945 16.4842 15.0586 15.5652 15.3304 14.709C15.3749 14.5687 15.4383 14.4287 15.4875 14.2885C15.3084 14.2712 15.1345 14.2248 14.9505 14.222L14.1627 14.2099C13.1083 14.6896 11.939 14.9537 10.7125 14.935C9.48592 14.9162 8.32948 14.6167 7.28461 14.1049L6.49679 14.0929C2.99643 14.0394 0.114414 16.9216 0.0625262 20.5275L0.0334353 22.5492C0.0149039 23.837 1.01413 24.8974 2.26426 24.9165L18.8698 25.17C19.3462 25.1773 19.7919 25.0286 20.1589 24.7765C20.1049 24.591 20.0699 24.4009 20.0728 24.2017L20.0792 23.7546Z" fill="black"/>
</svg>
