<svg width="21" height="21" viewBox="0 0 21 21" fill="none" xmlns="http://www.w3.org/2000/svg">
<path d="M10.805 0.122331C10.7236 0.0438193 10.6154 0 10.5027 0C10.3901 0 10.2818 0.0438193 10.2004 0.122331L0.136662 9.8175C0.0939221 9.85873 0.0599199 9.90828 0.036712 9.96314C0.0135041 10.018 0.00157282 10.077 0.00163987 10.1367L0 19.2359C0 19.7038 0.184298 20.1525 0.512349 20.4833C0.840401 20.8141 1.28534 21 1.74927 21H7.00255C7.23452 21 7.45698 20.9071 7.62101 20.7417C7.78504 20.5762 7.87719 20.3519 7.87719 20.118V12.6207C7.87719 12.5037 7.92326 12.3916 8.00527 12.3089C8.08729 12.2262 8.19852 12.1797 8.3145 12.1797H12.6877C12.8037 12.1797 12.9149 12.2262 12.9969 12.3089C13.0789 12.3916 13.125 12.5037 13.125 12.6207V20.118C13.125 20.3519 13.2171 20.5762 13.3812 20.7417C13.5452 20.9071 13.7677 21 13.9996 21H19.2507C19.7147 21 20.1596 20.8141 20.4876 20.4833C20.8157 20.1525 21 19.7038 21 19.2359V10.1367C21.0001 10.077 20.9881 10.018 20.9649 9.96314C20.9417 9.90828 20.9077 9.85873 20.865 9.8175L10.805 0.122331Z" fill="black"/>
</svg>
