<svg width="32" height="22" viewBox="0 0 32 22" fill="none" xmlns="http://www.w3.org/2000/svg">
<path d="M30.4 0H1.6C0.7165 0 0 0.703705 0 1.57143V20.4286C0 21.2963 0.7165 22 1.6 22H30.4C31.2835 22 32 21.2963 32 20.4286V1.57143C32 0.703705 31.2835 0 30.4 0ZM8.8 14.5298V15.3214C8.8 15.5385 8.621 15.7143 8.4 15.7143H7.6C7.379 15.7143 7.2 15.5385 7.2 15.3214V14.5215C6.6355 14.493 6.0865 14.2995 5.6315 13.9641C5.4365 13.8202 5.4265 13.5334 5.603 13.3679L6.1905 12.8175C6.329 12.6878 6.535 12.6819 6.697 12.7816C6.8905 12.9004 7.11 12.9643 7.338 12.9643H8.7435C9.0685 12.9643 9.3335 12.6736 9.3335 12.3166C9.3335 12.0244 9.153 11.7671 8.895 11.6914L6.645 11.0285C5.7155 10.7545 5.066 9.87839 5.066 8.89772C5.066 7.69362 6.0185 6.7154 7.1995 6.68446V5.89286C7.1995 5.6758 7.3785 5.5 7.5995 5.5H8.3995C8.6205 5.5 8.7995 5.6758 8.7995 5.89286V6.69281C9.364 6.72129 9.913 6.91429 10.368 7.25018C10.563 7.39406 10.573 7.68085 10.3965 7.84634L9.809 8.39683C9.6705 8.52647 9.4645 8.53237 9.3025 8.43268C9.109 8.31335 8.8895 8.25 8.6615 8.25H7.256C6.931 8.25 6.666 8.54071 6.666 8.89772C6.666 9.18991 6.8465 9.44723 7.1045 9.52286L9.3545 10.1858C10.284 10.4598 10.9335 11.3359 10.9335 12.3166C10.9335 13.5212 9.981 14.4989 8.8 14.5298ZM20.8 13.75C20.8 13.9671 20.621 14.1429 20.4 14.1429H14.8C14.579 14.1429 14.4 13.9671 14.4 13.75V12.9643C14.4 12.7472 14.579 12.5714 14.8 12.5714H20.4C20.621 12.5714 20.8 12.7472 20.8 12.9643V13.75ZM28.8 13.75C28.8 13.9671 28.621 14.1429 28.4 14.1429H24.4C24.179 14.1429 24 13.9671 24 13.75V12.9643C24 12.7472 24.179 12.5714 24.4 12.5714H28.4C28.621 12.5714 28.8 12.7472 28.8 12.9643V13.75ZM28.8 9.03571C28.8 9.25277 28.621 9.42857 28.4 9.42857H14.8C14.579 9.42857 14.4 9.25277 14.4 9.03571V8.25C14.4 8.03295 14.579 7.85714 14.8 7.85714H28.4C28.621 7.85714 28.8 8.03295 28.8 8.25V9.03571Z" fill="black"/>
</svg>
