<svg width="32" height="23" viewBox="0 0 32 23" fill="none" xmlns="http://www.w3.org/2000/svg">
<path d="M30.4 0H1.6C0.7165 0 0 0.735692 0 1.64286V21.3571C0 22.2643 0.7165 23 1.6 23H30.4C31.2835 23 32 22.2643 32 21.3571V1.64286C32 0.735692 31.2835 0 30.4 0ZM8.8 15.1903V16.0179C8.8 16.2448 8.621 16.4286 8.4 16.4286H7.6C7.379 16.4286 7.2 16.2448 7.2 16.0179V15.1815C6.6355 15.1518 6.0865 14.9495 5.6315 14.5988C5.4365 14.4484 5.4265 14.1486 5.603 13.9756L6.1905 13.4001C6.329 13.2645 6.535 13.2584 6.697 13.3626C6.8905 13.4868 7.11 13.5536 7.338 13.5536H8.7435C9.0685 13.5536 9.3335 13.2496 9.3335 12.8764C9.3335 12.5709 9.153 12.3019 8.895 12.2229L6.645 11.5298C5.7155 11.2433 5.066 10.3274 5.066 9.30217C5.066 8.04333 6.0185 7.02065 7.1995 6.9883V6.16071C7.1995 5.93379 7.3785 5.75 7.5995 5.75H8.3995C8.6205 5.75 8.7995 5.93379 8.7995 6.16071V6.99703C9.364 7.02681 9.913 7.22857 10.368 7.57973C10.563 7.73016 10.573 8.02998 10.3965 8.20299L9.809 8.7785C9.6705 8.91404 9.4645 8.9202 9.3025 8.81598C9.109 8.69123 8.8895 8.625 8.6615 8.625H7.256C6.931 8.625 6.666 8.92893 6.666 9.30217C6.666 9.60763 6.8465 9.87665 7.1045 9.95571L9.3545 10.6488C10.284 10.9353 10.9335 11.8512 10.9335 12.8764C10.9335 14.1358 9.981 15.1579 8.8 15.1903ZM20.8 14.375C20.8 14.6019 20.621 14.7857 20.4 14.7857H14.8C14.579 14.7857 14.4 14.6019 14.4 14.375V13.5536C14.4 13.3267 14.579 13.1429 14.8 13.1429H20.4C20.621 13.1429 20.8 13.3267 20.8 13.5536V14.375ZM28.8 14.375C28.8 14.6019 28.621 14.7857 28.4 14.7857H24.4C24.179 14.7857 24 14.6019 24 14.375V13.5536C24 13.3267 24.179 13.1429 24.4 13.1429H28.4C28.621 13.1429 28.8 13.3267 28.8 13.5536V14.375ZM28.8 9.44643C28.8 9.67335 28.621 9.85714 28.4 9.85714H14.8C14.579 9.85714 14.4 9.67335 14.4 9.44643V8.625C14.4 8.39808 14.579 8.21428 14.8 8.21428H28.4C28.621 8.21428 28.8 8.39808 28.8 8.625V9.44643Z" fill="white"/>
</svg>
