<svg width="305" height="250" viewBox="0 0 305 250" fill="none" xmlns="http://www.w3.org/2000/svg">
<g clip-path="url(#clip0)">
<path opacity="0.18" d="M100.231 0.449891C92.0687 1.19642 84.1443 3.76532 76.9717 7.99006C69.7991 12.2148 63.5385 18.0011 58.5956 24.9738C48.8741 38.8976 45.1285 56.4147 42.1546 73.4976C41.4837 78.5535 40.245 83.5049 38.4652 88.2449C34.888 96.6441 28.0282 102.812 22.2346 109.655C7.477 127.127 -0.11223 150.752 0.0701355 174.153C0.168333 194.8 6.50906 225.806 25.5172 235.643C53.5111 250.007 85.27 253.705 115.508 246.123C134.572 241.272 153.047 231.93 172.644 232.424C192.242 232.918 210.689 243.248 230.272 244.267C241.356 244.719 252.369 242.207 262.311 236.959C272.253 231.711 280.808 223.894 287.198 214.218C292.694 205.292 296.784 195.465 299.305 185.128C302.613 172.677 304.525 159.851 305 146.92C306.431 105.762 280.535 65.8769 248.368 45.3056C176.544 -0.553223 120.123 -1.22696 100.231 0.449891Z" fill="#1EAC1D"/>
<path opacity="0.44" d="M57.5855 217.796C64.9223 217.796 72.5536 218.709 78.8101 222.796C79.3791 223.086 79.8355 223.578 80.1007 224.189C80.5917 225.686 78.8662 226.868 77.4354 227.363C68.6587 230.157 59.5141 231.406 50.361 231.061C44.2579 230.91 38.1685 230.375 32.1245 229.459C30.0045 229.334 27.9402 228.688 26.0923 227.572C25.1867 226.986 24.4803 226.106 24.0765 225.061C23.6727 224.016 23.5926 222.86 23.8478 221.763C24.5913 219.547 27.0182 218.514 29.2206 218.394C38.5493 217.766 48.1586 217.84 57.5855 217.796Z" fill="#1EAC1D"/>
<path d="M69.271 198.572C70.7428 200.343 72.5896 201.713 74.6578 202.569C83.748 207.061 93.2591 211.223 103.261 212.151C117.977 213.514 132.398 208.004 146.257 202.584C144.855 202.824 139.819 198.093 138.528 197.134C135.989 195.353 133.492 193.496 130.995 191.67C127.025 188.78 122.073 187.807 117.359 187.028C106.721 185.309 95.8529 186.299 85.6418 189.918C79.8265 191.956 74.3139 194.87 69.271 198.572Z" fill="#1EAC1D"/>
<path d="M69.271 198.572C70.7428 200.343 72.5896 201.713 74.6578 202.569C83.748 207.061 93.2591 211.223 103.261 212.151C117.977 213.514 132.398 208.004 146.257 202.584C144.855 202.824 139.819 198.093 138.528 197.134C135.989 195.353 133.492 193.496 130.995 191.67C127.025 188.78 122.073 187.807 117.359 187.028C106.721 185.309 95.8529 186.299 85.6418 189.918C79.8265 191.956 74.3139 194.87 69.271 198.572Z" fill="url(#paint0_linear)"/>
<path opacity="0.44" d="M249.406 211.777L264.262 213.978C264.976 214.013 265.667 214.262 266.254 214.696C266.643 215.138 266.886 215.703 266.947 216.306C267.008 216.908 266.883 217.515 266.591 218.035C265.974 219.056 265.149 219.916 264.178 220.55C267.699 221.449 273.829 221.254 273.661 226.614C273.612 227.603 273.304 228.557 272.77 229.368C272.237 230.178 271.5 230.811 270.645 231.195C269.58 231.583 268.46 231.77 267.334 231.749C256.35 232.154 245.198 232.558 234.565 229.608C232.531 229.054 230.132 227.827 230.132 225.596C230.132 224.802 230.454 224.099 230.497 223.26C230.735 218.185 220.579 221.164 217.969 221.329C212.162 221.688 206.354 221.928 200.546 222.092C188.679 222.437 176.811 222.422 164.957 222.242C161.21 222.054 157.454 222.219 153.734 222.736C150.817 223.26 147.983 224.233 145.121 224.997C135.691 227.557 125.878 228.097 116.251 226.584C111.889 225.895 106.53 223.395 106.81 218.694C107.049 214.666 111.341 212.57 115.003 211.522C120.415 209.996 125.917 208.855 131.472 208.109C141.3 206.948 151.184 206.423 161.071 206.537C182.548 206.357 204.025 206.342 225.517 206.327C232.741 206.267 242.252 210.714 249.406 211.777Z" fill="#1EAC1D"/>
<path d="M51.8901 174.542L50.9923 221.344H45.0444L43.333 184.139L39.6015 221.344L32.7838 222.557L31.2126 173L51.8901 174.542Z" fill="#1EAC1D"/>
<path d="M51.8901 174.542L50.9923 221.344H45.0444L43.333 184.139L39.6015 221.344L32.7838 222.557L31.2126 173L51.8901 174.542Z" fill="url(#paint1_linear)"/>
<path d="M45.0444 221.344L45.367 224.787L47.4011 225.192L48.3129 224.338L49.8701 225.656H55.9723C55.9723 225.656 57.5294 222.796 54.1486 221.823L50.7819 220.85L45.0444 221.344Z" fill="#212741"/>
<path d="M36.852 220.61V177.222L31.2126 173L33.1205 221.344L36.852 220.61Z" fill="url(#paint2_linear)"/>
<path d="M33.1205 221.344L33.4431 224.787L35.4772 225.192L36.389 224.338L37.9321 225.656H44.0484C44.0484 225.656 45.5915 222.796 42.2247 221.823L38.8439 220.85L33.1205 221.344Z" fill="#212741"/>
<path d="M244.16 223.215C243.807 223.252 243.461 223.348 243.136 223.5C242.977 223.583 242.843 223.711 242.747 223.869C242.65 224.027 242.596 224.21 242.589 224.398C242.622 224.582 242.697 224.755 242.807 224.901C242.917 225.047 243.059 225.162 243.22 225.237C243.529 225.401 243.879 225.476 244.188 225.656C244.45 225.846 244.727 226.011 245.016 226.15C245.53 226.255 246.062 226.176 246.531 225.925C248.729 225.102 251.046 224.696 253.376 224.728C253.6 224.758 253.826 224.758 254.05 224.728C254.389 224.604 254.691 224.386 254.925 224.097C255.159 223.807 255.317 223.457 255.382 223.081C255.705 221.538 255.705 219.938 255.382 218.394C255.358 218.219 255.301 218.051 255.214 217.9C255.111 217.784 254.98 217.701 254.835 217.661C252.549 216.733 251.567 219.158 250.066 220.476C248.361 221.935 246.322 222.881 244.16 223.215Z" fill="#FFBBAB"/>
<path d="M251.777 223.29H251.328C250.299 223.41 249.262 223.44 248.228 223.38C248.032 223.382 247.839 223.33 247.667 223.23C247.557 223.135 247.469 223.014 247.411 222.876C247.352 222.738 247.325 222.588 247.33 222.437C247.358 222.138 247.358 221.837 247.33 221.538C247.316 221.477 247.287 221.42 247.246 221.374C247.196 221.358 247.142 221.358 247.092 221.374C246.299 221.398 245.523 221.629 244.833 222.048C243.411 222.652 242.191 223.694 241.326 225.042C241.249 225.156 241.206 225.291 241.2 225.431C241.206 225.553 241.25 225.669 241.326 225.761C242.252 227.258 244.567 226.928 245.984 226.614C247.4 226.3 249.07 225.611 250.669 225.341C252.268 225.072 254.316 225.192 255.831 224.203C256.08 224.06 256.288 223.848 256.435 223.59C256.572 223.133 256.587 222.644 256.478 222.178C256.369 221.713 256.14 221.289 255.817 220.955C255.768 220.875 255.693 220.816 255.607 220.79C255.493 220.775 255.377 220.807 255.284 220.88C254.569 221.359 254.092 222.197 253.362 222.676C252.882 223.001 252.341 223.21 251.777 223.29Z" fill="#1EAC1D"/>
<path d="M259.226 227.437C258.891 227.56 258.578 227.742 258.3 227.976C258.162 228.096 258.058 228.255 258 228.435C257.943 228.616 257.935 228.81 257.978 228.994C258.05 229.164 258.161 229.312 258.301 229.424C258.441 229.537 258.604 229.61 258.777 229.638C259.114 229.713 259.465 229.638 259.801 229.788C260.109 229.899 260.423 229.989 260.741 230.058C261.26 230.013 261.751 229.792 262.144 229.429C264.082 228.042 266.233 227.028 268.499 226.434C268.721 226.384 268.937 226.309 269.144 226.21C269.418 225.991 269.636 225.702 269.778 225.37C269.92 225.037 269.982 224.673 269.958 224.308C269.903 222.739 269.514 221.203 268.821 219.817C268.767 219.651 268.675 219.502 268.555 219.383C268.428 219.3 268.283 219.254 268.134 219.248C265.693 218.963 265.328 221.583 264.178 223.245C262.894 225.076 261.188 226.52 259.226 227.437Z" fill="#FFBBAB"/>
<path d="M266.843 226.075L266.437 226.195C265.514 226.433 264.576 226.598 263.631 226.689C263.457 226.74 263.272 226.74 263.098 226.689C262.986 226.615 262.891 226.514 262.82 226.395C262.75 226.275 262.705 226.14 262.691 226C262.668 225.72 262.616 225.444 262.537 225.177C262.522 225.12 262.487 225.071 262.439 225.042C262.393 225.027 262.344 225.027 262.298 225.042C261.569 225.174 260.881 225.492 260.292 225.97C259.079 226.743 258.103 227.877 257.487 229.234C257.435 229.351 257.411 229.479 257.417 229.608C257.445 229.715 257.498 229.813 257.571 229.893C258.609 231.195 260.685 230.537 261.948 230.042C263.21 229.548 264.669 228.725 266.156 228.261C267.643 227.797 269.481 227.617 270.757 226.509C270.968 226.347 271.137 226.131 271.248 225.88C271.32 225.44 271.275 224.986 271.119 224.571C270.963 224.156 270.702 223.795 270.365 223.53C270.308 223.468 270.234 223.426 270.154 223.41C270.101 223.41 270.049 223.422 270 223.446C269.952 223.469 269.909 223.503 269.874 223.545C269.256 224.084 268.92 224.907 268.316 225.446C267.874 225.768 267.372 225.983 266.843 226.075Z" fill="#1EAC1D"/>
<path d="M143.845 221.464C146.945 221.643 150.27 221.793 152.921 220.056C153.11 219.948 153.273 219.794 153.398 219.607C153.46 219.455 153.485 219.289 153.471 219.124C153.456 218.959 153.402 218.8 153.314 218.664C153.127 218.395 152.881 218.179 152.598 218.035C151.605 217.524 150.538 217.195 149.442 217.062C148.039 216.807 146.762 216.568 145.416 216.418C144.546 216.328 143.073 215.954 142.372 216.703C142.158 217.05 142.017 217.442 141.959 217.853C141.9 218.264 141.927 218.684 142.035 219.083C142.203 220.431 142.442 221.374 143.845 221.464Z" fill="white"/>
<path d="M43.3329 184.139L46.0684 181.773L47.9903 220.85L45.0444 221.344L43.3329 184.139Z" fill="url(#paint3_linear)"/>
<path d="M117.64 168.463C112.029 162.1 106.263 155.647 99.2351 151.096C92.207 146.544 83.6218 144.059 75.6819 146.305L95.3213 177.177C99.1089 183.166 102.967 189.154 108.269 193.646C117.556 201.401 134.81 205.713 146.215 201.985C144.448 196.221 137.406 190.801 133.492 186.385L117.64 168.463Z" fill="#1EAC1D"/>
<path d="M117.64 168.463C112.029 162.1 106.263 155.647 99.2351 151.096C92.207 146.544 83.6218 144.059 75.6819 146.305L95.3213 177.177C99.1089 183.166 102.967 189.154 108.269 193.646C117.556 201.401 134.81 205.713 146.215 201.985C144.448 196.221 137.406 190.801 133.492 186.385L117.64 168.463Z" fill="url(#paint4_linear)"/>
<path d="M71.249 131.752C68.5482 137.069 65.5889 142.231 62.3832 147.218C61.7835 147.949 61.0465 148.538 60.22 148.945C59.3935 149.353 58.4959 149.57 57.5856 149.584C56.8392 149.575 56.0977 149.454 55.3831 149.224C53.2649 148.67 51.1747 148.012 49.0705 147.278C48.8941 147.207 48.7249 147.116 48.5655 147.009C47.1626 145.916 46.854 142.906 46.5454 141.17C46.3771 140.211 45.5494 136.409 47.0785 136.124C47.85 135.974 50.3751 138.37 51.0905 138.834C52.5897 139.802 54.1349 140.687 55.7198 141.484C55.9089 141.609 56.1286 141.672 56.3511 141.664C56.5904 141.591 56.8018 141.439 56.9543 141.229C60.1647 137.207 62.8585 132.746 64.9644 127.964C65.5816 128.249 66.1848 128.563 66.788 128.893C67.6297 129.362 68.4574 129.861 69.271 130.39L69.5235 130.54C70.2109 130.899 70.7019 131.273 71.249 131.752Z" fill="#1EAC1D"/>
<path d="M71.249 131.752C68.5482 137.069 65.5889 142.231 62.3832 147.218C61.7835 147.949 61.0465 148.538 60.22 148.945C59.3935 149.353 58.4959 149.57 57.5855 149.584C56.8392 149.576 56.0977 149.455 55.3831 149.224C53.2649 148.671 51.1747 148.012 49.0705 147.278C48.8909 147.204 48.7173 147.113 48.5514 147.009C48.4392 147.009 48.1446 145.841 48.1025 145.691C47.9603 145.201 47.8525 144.701 47.7799 144.194C47.6531 143.2 47.6531 142.193 47.7799 141.2C47.7799 140.855 47.864 140.601 48.1586 140.87C48.4532 141.14 48.341 141.155 48.4673 141.274C48.5935 141.394 48.9021 141.604 49.1125 141.769C49.7017 142.218 50.2909 142.667 50.9222 143.086C52.1315 143.857 53.4278 144.461 54.7799 144.883C55.6806 145.217 56.633 145.364 57.5855 145.317C58.3016 145.22 58.9822 144.928 59.562 144.469C60.1417 144.01 60.6012 143.4 60.8962 142.697C61.3872 141.888 61.8641 141.05 62.299 140.211C62.7452 139.37 63.2617 138.573 63.8421 137.831C65.0766 136.244 66.297 134.657 67.5315 133.085C68.1582 132.173 68.8525 131.317 69.6077 130.525C70.2109 130.899 70.7019 131.273 71.249 131.752Z" fill="url(#paint5_linear)"/>
<path d="M35.6175 133.13C34.0291 133.975 32.4839 134.91 30.9882 135.929C27.8038 138.1 28.3789 139.103 28.9681 142.861C30.2064 150.884 30.8304 159 30.8339 167.131C30.7068 169.096 30.8343 171.071 31.2126 173C31.7272 174.117 32.1225 175.292 32.391 176.503C37.3008 177.222 48.5234 179.917 51.8761 174.542C55.2288 169.167 49.3089 151.096 50.3891 142.981C51.4693 134.866 41.5935 133.998 41.5935 133.998L35.6175 133.13Z" fill="#1EAC1D"/>
<path d="M42.379 170.679L33.4852 177.087L32.0824 175.096C31.2248 171.797 30.8231 168.382 30.89 164.96C31.1004 159.854 30.89 161.681 30.89 161.681L43.4031 170.125L42.379 170.679Z" fill="url(#paint6_linear)"/>
<path d="M45.6476 163.073L46.7839 156.276C46.8697 155.874 47.074 155.511 47.3668 155.242C47.6596 154.973 48.0256 154.81 48.4111 154.779L60.6437 153.761C60.8252 153.75 61.0067 153.782 61.175 153.855C61.3433 153.929 61.4941 154.041 61.6164 154.185C61.7388 154.328 61.8296 154.499 61.8821 154.685C61.9347 154.87 61.9477 155.066 61.9202 155.258L57.2068 177.911C57.144 178.194 56.9937 178.448 56.78 178.629C56.5664 178.811 56.3017 178.911 56.0284 178.914H44.8059C44.6307 178.914 44.4575 178.874 44.2984 178.795C44.1393 178.717 43.9981 178.602 43.8846 178.46C43.7711 178.317 43.6881 178.15 43.6413 177.97C43.5945 177.79 43.585 177.601 43.6135 177.416L45.6476 163.073Z" fill="#473F47"/>
<path d="M46.7979 125.21C46.8122 125.75 46.7841 126.291 46.7137 126.827C46.4822 127.947 46.0691 129.016 45.4933 129.986C45.3479 130.323 45.1319 130.62 44.862 130.854C44.2916 131.157 43.6341 131.216 43.0243 131.019C42.8815 130.981 42.7323 130.981 42.5894 131.019C42.2387 131.168 42.1967 131.677 42.2107 132.082L42.3089 133.938C42.3516 134.194 42.3121 134.458 42.1967 134.687C42.0687 134.83 41.9098 134.938 41.7337 135.001C41.0885 135.229 40.3974 135.264 39.7349 135.103C39.0723 134.942 38.4635 134.591 37.9742 134.088C37.7313 133.849 37.5316 133.565 37.385 133.249C37.2736 132.937 37.2028 132.609 37.1746 132.276C36.9642 130.495 37.1746 128.698 37.0203 126.901C36.7927 125.417 36.7503 123.906 36.894 122.41C37.0296 121.616 37.3463 120.871 37.816 120.239C38.2858 119.607 38.8942 119.108 39.5874 118.787C41.0267 118.305 42.5745 118.342 43.9923 118.891C44.6865 119.098 45.3701 119.343 46.0404 119.625C46.3698 119.724 46.6542 119.947 46.84 120.254C47.1065 120.823 46.84 121.646 46.84 122.26C46.7839 123.278 46.7979 124.266 46.7979 125.21Z" fill="#FFBBAB"/>
<path d="M37.1746 132.276C37.1746 132.276 35.7718 133.294 35.7718 134.402C35.7718 135.51 43.1927 157.684 43.1927 157.684C43.1927 157.684 43.361 136.453 43.1927 135.465C42.9409 134.507 42.6076 133.574 42.1967 132.681C42.1967 132.681 39.3489 134.956 37.1746 132.276Z" fill="white"/>
<path d="M39.6014 134.283L39.0964 136.004L39.9381 136.738L40.3309 148.79L43.2628 157.684L43.3329 148.641L40.8219 136.693L41.7337 135.001L40.5273 134.283H39.6014Z" fill="#212741"/>
<path d="M45.0444 165.604C44.1749 166.779 43.187 167.848 42.0985 168.793L41.4251 169.362C41.1818 169.595 40.8791 169.746 40.5554 169.796C40.3315 169.793 40.111 169.737 39.9101 169.631C35.6175 167.854 31.409 165.858 27.2848 163.642C25.5733 162.699 23.6795 161.471 23.3148 159.45C23.2096 158.746 23.2096 158.028 23.3148 157.324C23.96 152.185 25.2138 147.154 27.0463 142.352C27.5653 141.005 28.2106 138.4 29.5573 137.516H29.7116L29.908 137.412C31.7317 136.708 33.3169 138.654 33.8219 140.301C34.3904 142.7 34.3175 145.221 33.6115 147.578C32.911 149.914 32.3902 152.307 32.0543 154.734C31.9981 155.07 32.0271 155.417 32.1385 155.737C32.3089 156.046 32.5503 156.304 32.8399 156.486L45.0444 165.604Z" fill="#1EAC1D"/>
<path d="M42.1546 168.793L41.4812 169.362C41.2379 169.595 40.9352 169.746 40.6115 169.796C40.3876 169.793 40.1671 169.737 39.9662 169.631C35.6736 167.854 31.4651 165.858 27.3408 163.642C25.6294 162.699 23.7356 161.471 23.3709 159.45C23.2657 158.746 23.2657 158.028 23.3709 157.324C24.0161 152.185 25.2699 147.154 27.1024 142.352C27.6214 141.005 28.2667 138.4 29.6134 137.516H29.7677L29.9641 137.412C30.8172 137.398 31.6529 137.67 32.3546 138.188C33.0562 138.706 33.5888 139.445 33.878 140.301C33.878 140.301 27.3829 154.495 27.6635 156.636C27.9441 158.776 41.5794 165.723 41.5794 165.723L42.1546 168.793Z" fill="url(#paint7_linear)"/>
<path d="M48.1025 166.801C48.457 166.891 48.788 167.065 49.0705 167.31C49.2115 167.435 49.3167 167.599 49.3738 167.785C49.4309 167.97 49.4376 168.169 49.3931 168.358C49.2885 168.582 49.1615 168.793 49.0143 168.987C48.846 169.317 48.818 169.736 48.6496 170.08C48.4932 170.346 48.2885 170.576 48.0475 170.756C47.8066 170.936 47.5343 171.062 47.2468 171.128C46.4571 171.508 45.5886 171.664 44.7258 171.58C43.863 171.496 43.0352 171.176 42.3229 170.649C41.369 169.766 39.5173 166.158 41.5654 165.634C42.4632 165.577 43.3636 165.678 44.2308 165.933C45.5418 166.107 46.8369 166.397 48.1025 166.801Z" fill="#FFBBAB"/>
<path d="M223.665 192.284H163.708L174.328 160.364H214.715L223.665 192.284Z" fill="#1EAC1D"/>
<path d="M223.665 192.284H163.708L174.328 160.364H214.715L223.665 192.284Z" fill="url(#paint8_linear)"/>
<path d="M246.082 196.536C245.238 197.436 244.57 198.505 244.115 199.682C243.66 200.858 243.427 202.12 243.43 203.393C243.425 204.739 243.688 206.071 244.202 207.3C244.749 208.632 245.571 209.815 246.605 210.761C247.64 211.707 248.861 212.392 250.178 212.765V214.981H140.758C138.478 214.984 136.255 214.218 134.406 212.793C132.557 211.368 131.177 209.357 130.462 207.046C130.089 205.869 129.9 204.635 129.901 203.393C129.899 201.87 130.178 200.363 130.723 198.956C131.268 197.549 132.068 196.271 133.077 195.194C134.085 194.118 135.283 193.264 136.601 192.683C137.919 192.101 139.332 191.802 140.758 191.804H250.178V194.02C248.631 194.465 247.22 195.332 246.082 196.536Z" fill="#1EAC1D"/>
<path d="M250.178 212.765V214.981H140.758C138.478 214.984 136.255 214.218 134.406 212.793C132.557 211.368 131.177 209.357 130.462 207.046C134.67 207.824 160.917 212.301 175.562 203.393L244.16 207.3C244.711 208.637 245.539 209.823 246.582 210.77C247.624 211.716 248.853 212.398 250.178 212.765Z" fill="url(#paint9_linear)"/>
<path d="M123.293 217.721C125.734 219.772 128.4 221.898 131.5 222.092C131.709 222.124 131.923 222.093 132.117 222.003C132.253 221.919 132.365 221.799 132.444 221.655C132.523 221.51 132.565 221.346 132.566 221.179C132.554 220.843 132.467 220.515 132.313 220.221C131.757 219.208 131.057 218.294 130.237 217.511C129.269 216.493 128.301 215.475 127.263 214.517C126.604 213.918 125.594 212.705 124.626 212.9C123.658 213.094 123.392 213.978 123.069 214.651C122.494 215.864 122.185 216.792 123.293 217.721Z" fill="white"/>
<path d="M246.082 196.536C244.954 197.741 244.144 199.243 243.732 200.889C243.321 202.535 243.323 204.268 243.738 205.913C244.153 207.558 244.967 209.057 246.097 210.26C247.228 211.463 248.635 212.327 250.178 212.765V213.094H184.695C182.276 213.094 179.957 212.069 178.247 210.244C176.537 208.419 175.576 205.944 175.576 203.363C175.576 200.782 176.537 198.306 178.247 196.481C179.957 194.656 182.276 193.631 184.695 193.631H250.178V193.945C248.624 194.412 247.211 195.305 246.082 196.536Z" fill="white"/>
<path d="M50.7117 155.049L51.0344 153.911C51.0636 153.808 51.1203 153.716 51.1976 153.647C51.2748 153.578 51.3692 153.534 51.4693 153.521L57.9362 153.012C57.9911 153.006 58.0465 153.015 58.0973 153.038C58.1481 153.061 58.1925 153.097 58.2263 153.144C58.26 153.19 58.282 153.246 58.2902 153.304C58.2984 153.362 58.2924 153.421 58.2729 153.477L57.8801 154.719C57.8412 154.844 57.7684 154.953 57.6709 155.033C57.5734 155.113 57.4558 155.16 57.333 155.168L51.1045 155.573C51.0426 155.578 50.9804 155.567 50.9233 155.541C50.8663 155.515 50.8161 155.474 50.7773 155.422C50.7385 155.37 50.7122 155.309 50.7008 155.244C50.6894 155.179 50.6931 155.112 50.7117 155.049Z" fill="white"/>
<path d="M46.8119 117.888C46.9662 118.248 47.1907 118.562 47.359 118.921C47.4585 119.089 47.5258 119.276 47.5571 119.471C47.5884 119.666 47.5831 119.866 47.5414 120.059C47.4373 120.364 47.252 120.629 47.0083 120.823C45.7834 121.739 44.2845 122.138 42.7999 121.946C42.3751 121.908 41.9481 121.908 41.5233 121.946C41.0955 121.99 40.6969 122.197 40.4011 122.53C40.0667 123.146 39.8789 123.84 39.854 124.551C39.854 124.551 39.854 124.641 39.854 124.671C39.854 124.701 39.854 124.671 39.854 124.671C39.377 124.671 38.9281 124.147 38.4512 124.341C38.3461 124.408 38.2587 124.502 38.1973 124.614C38.1359 124.727 38.1026 124.855 38.1005 124.985C38.0585 125.296 38.1024 125.613 38.2267 125.898C38.2823 126.01 38.3158 126.132 38.3249 126.258C38.3377 126.337 38.3377 126.418 38.3249 126.497L38.0303 127.381C37.9563 127.713 37.7655 128.002 37.4973 128.189C37.3071 128.251 37.1057 128.263 36.9103 128.224C36.7149 128.184 36.5313 128.096 36.375 127.964C36.1311 127.834 35.9196 127.645 35.7578 127.41C35.6459 127.218 35.5697 127.005 35.5333 126.782C35.131 124.568 34.9663 122.313 35.0423 120.059C35.0136 119.551 35.0804 119.042 35.2387 118.562C35.5023 118.101 35.8623 117.71 36.2906 117.422C36.7189 117.134 37.2039 116.955 37.7077 116.9C39.5583 116.543 41.4394 116.398 43.3189 116.466C43.9058 116.438 44.4937 116.478 45.0725 116.586C45.6503 116.714 46.1756 117.034 46.5735 117.499" fill="#963637"/>
<path d="M43.9081 127.261C43.61 127.423 43.3762 127.694 43.2488 128.024C43.2488 128.024 43.2488 128.114 43.2488 128.144C43.2488 128.174 43.2488 128.144 43.347 128.144C43.9869 128.189 44.6289 128.189 45.2688 128.144C45.7561 128.115 46.233 127.983 46.6716 127.755C46.7037 127.765 46.7378 127.765 46.7698 127.755C46.7776 127.72 46.7776 127.684 46.7698 127.65C46.7628 127.514 46.7301 127.38 46.6737 127.257C46.6173 127.135 46.5382 127.025 46.4414 126.936C46.3445 126.846 46.2317 126.779 46.1098 126.737C45.9879 126.695 45.8593 126.68 45.7318 126.692C45.0912 126.731 44.4674 126.925 43.9081 127.261Z" fill="#963637"/>
<path d="M273.914 44.4365H118.538C112.595 44.4365 107.778 49.5778 107.778 55.9199V160.858C107.778 167.2 112.595 172.341 118.538 172.341H273.914C279.856 172.341 284.673 167.2 284.673 160.858V55.9199C284.673 49.5778 279.856 44.4365 273.914 44.4365Z" fill="#1EAC1D"/>
<path d="M122.929 164.78C124.612 158.871 126.525 153.037 128.666 147.278C128.76 147.045 128.922 146.85 129.129 146.724C129.36 146.634 129.614 146.634 129.845 146.724L134.516 147.428C134.215 150.226 133.435 152.941 132.215 155.438C130.403 160.022 129.076 164.807 128.259 169.706C128.22 170.198 128.076 170.674 127.839 171.098C127.341 171.72 126.637 172.112 125.875 172.191C123.588 172.7 122.101 173.449 121.666 170.964C121.386 169.062 122.452 166.457 122.929 164.78Z" fill="url(#paint10_linear)"/>
<path d="M144.799 166.322H149.821C150.166 166.274 150.516 166.365 150.803 166.577C151.041 166.801 151.097 167.161 151.294 167.445C151.7 168.044 152.514 168.029 153.201 167.954C155.607 167.665 157.986 167.165 160.314 166.457L159.416 159.929C155.157 160.936 150.801 161.394 146.44 161.292L146.201 153.432H152.823C152.991 153.468 153.166 153.458 153.329 153.403C153.493 153.348 153.641 153.249 153.759 153.115C153.877 152.982 153.961 152.818 154.004 152.641C154.046 152.463 154.045 152.276 154.001 152.099C154.013 151.138 153.961 150.178 153.847 149.224C153.844 148.999 153.759 148.784 153.608 148.626C153.421 148.512 153.2 148.48 152.991 148.536C147.947 149.252 142.85 149.452 137.77 149.135C137.488 157.163 136.117 165.106 133.702 172.715C136.396 172.401 139.594 172.895 142.189 172.266C143.424 171.967 143.368 171.832 143.76 170.41C143.873 169.975 144.644 166.337 144.799 166.322Z" fill="url(#paint11_linear)"/>
<path d="M147.534 213.963V217.257C145.672 217.497 143.794 217.552 141.923 217.421C141.837 217.439 141.748 217.435 141.664 217.408C141.581 217.382 141.504 217.334 141.441 217.27C141.377 217.205 141.33 217.126 141.301 217.037C141.273 216.949 141.265 216.855 141.278 216.762C140.885 211.298 141.53 205.788 140.941 200.368C140.848 199.229 140.602 198.11 140.211 197.045C139.732 195.984 139.149 194.98 138.472 194.05C136.508 191.161 134.758 188.112 133.239 184.932C131.785 181.703 131.115 178.135 131.289 174.557C131.289 170.979 133.057 169.436 136.326 170.365C136.829 170.452 137.308 170.657 137.728 170.964C138.061 171.283 138.336 171.663 138.542 172.086C140.515 175.512 142.263 179.079 143.775 182.761C147.366 192.568 147.66 203.363 147.534 213.963Z" fill="#473F47"/>
<path d="M147.534 213.963V217.257C145.672 217.497 143.794 217.552 141.923 217.421C141.837 217.439 141.748 217.435 141.664 217.408C141.581 217.382 141.504 217.334 141.441 217.27C141.377 217.205 141.33 217.126 141.301 217.037C141.273 216.949 141.265 216.855 141.278 216.762C140.885 211.298 141.53 205.788 140.941 200.368C140.848 199.229 140.602 198.11 140.211 197.045C139.732 195.984 139.149 194.98 138.472 194.05C136.508 191.161 134.758 188.112 133.239 184.932C131.785 181.703 131.115 178.135 131.289 174.557C131.289 170.979 133.057 169.436 136.326 170.365C136.829 170.452 137.308 170.657 137.728 170.964C138.061 171.283 138.336 171.663 138.542 172.086C140.515 175.512 142.263 179.079 143.775 182.761C147.366 192.568 147.66 203.363 147.534 213.963Z" fill="url(#paint12_linear)"/>
<path d="M124.921 177.566C125.747 180.996 126.898 184.327 128.358 187.508C129.564 190.217 132.356 193.691 132.342 196.745C132.342 202.255 126.913 209.606 123.574 213.379C125.336 214.618 127.217 215.652 129.185 216.463C129.615 216.706 130.112 216.78 130.588 216.673C131.109 216.428 131.522 215.977 131.738 215.415L135.372 208.693C137.392 204.95 139.482 200.997 139.65 196.715C139.66 195.147 139.557 193.58 139.342 192.029C138.963 188.72 139.342 184.977 138.57 181.758C137.883 178.764 136.985 175.919 136.354 172.94C136.196 171.401 135.53 169.973 134.474 168.912C133.974 168.555 133.418 168.297 132.833 168.149C130.027 167.296 126.941 167.191 125.398 170.32C124.45 172.601 124.281 175.166 124.921 177.566Z" fill="#473F47"/>
<path d="M253.98 153.222C253.958 153.416 253.996 153.613 254.086 153.782C254.177 153.952 254.317 154.086 254.485 154.165C254.829 154.304 255.199 154.356 255.565 154.315H257.136C257.296 154.302 257.457 154.338 257.599 154.42C257.682 154.51 257.745 154.618 257.784 154.737C257.822 154.856 257.836 154.983 257.823 155.108L257.992 162.235C258.145 163.862 257.933 165.504 257.374 167.026C257.038 167.76 256.533 168.388 256.182 169.107C255.979 169.451 255.847 169.837 255.796 170.241C255.745 170.644 255.776 171.054 255.887 171.443C258.553 171.562 261.218 171.562 263.869 171.443C264.373 171.485 264.874 171.325 265.272 170.994C265.452 170.774 265.582 170.512 265.651 170.23C266.437 167.86 267.083 165.44 267.587 162.984C268.114 160.656 268.364 158.266 268.33 155.872C268.287 153.464 267.653 151.11 266.493 149.045C266.218 148.525 265.845 148.071 265.399 147.712C264.935 147.4 264.421 147.182 263.883 147.068C261.225 146.419 258.515 146.038 255.789 145.931C254.885 145.763 253.954 145.915 253.138 146.365C252.749 146.676 252.443 147.089 252.249 147.564C252.054 148.039 251.979 148.559 252.03 149.075C252.138 150.115 252.413 151.128 252.843 152.069" fill="url(#paint13_linear)"/>
<path d="M284.659 55.9199V147.952H107.764V55.9199C107.768 52.8755 108.903 49.9569 110.92 47.8042C112.937 45.6516 115.671 44.4404 118.524 44.4365H273.9C276.752 44.4404 279.487 45.6516 281.504 47.8042C283.521 49.9569 284.655 52.8755 284.659 55.9199Z" fill="#473F47"/>
<path d="M260.306 142.816C258.343 144.482 256.072 145.686 253.643 146.35C253.491 146.357 253.342 146.396 253.205 146.465C253.067 146.535 252.945 146.633 252.843 146.754C252.752 147.01 252.752 147.292 252.843 147.548C253.211 149.416 253.737 151.245 254.415 153.012C257.998 152.513 261.444 151.218 264.529 149.209C265.038 148.919 265.479 148.509 265.819 148.012C266.085 147.428 266.228 146.789 266.24 146.14C266.367 144.359 266.605 141.828 265.623 140.256C264.837 139.029 264.417 139.837 263.379 140.601L260.306 142.816Z" fill="#1EAC1D"/>
<path d="M261.569 142.517C259.607 144.185 257.336 145.39 254.905 146.05C254.75 146.055 254.597 146.095 254.457 146.168C254.317 146.24 254.192 146.343 254.092 146.47C254 146.72 254 146.998 254.092 147.248C254.455 149.116 254.976 150.945 255.649 152.713C259.237 152.214 262.687 150.919 265.777 148.91C266.285 148.624 266.723 148.213 267.054 147.712C267.334 147.134 267.479 146.492 267.475 145.841C267.601 144.074 267.853 141.529 266.857 139.972C266.086 138.744 265.651 139.538 264.613 140.301L261.569 142.517Z" fill="url(#paint14_linear)"/>
<path d="M76.1308 125.659C75.6606 126.556 74.9531 127.285 74.0967 127.755C73.2938 128.155 72.4638 128.491 71.6137 128.758C70.7545 128.998 69.9885 129.522 69.4253 130.255L69.3271 130.39C68.5135 129.871 67.6858 129.372 66.8441 128.893C66.9563 128.653 67.1668 128.369 67.2509 128.189C67.4333 127.755 67.5736 127.306 67.7419 126.872C68.3505 125.362 69.3662 124.08 70.6598 123.188C70.758 123.188 70.8842 123.054 70.9824 123.188C70.9964 123.221 71.0036 123.257 71.0036 123.293C71.0036 123.329 70.9964 123.365 70.9824 123.398C70.9718 124.036 70.8076 124.659 70.5055 125.21L75.5837 123.263C75.7089 123.194 75.8509 123.168 75.9905 123.188C76.0719 123.222 76.1454 123.275 76.2059 123.342C76.2665 123.409 76.3126 123.49 76.3412 123.578C76.4463 123.921 76.482 124.284 76.4457 124.642C76.4094 125.001 76.3021 125.348 76.1308 125.659Z" fill="#FFBBAB"/>
<path d="M282.036 58.1207V144.957H110.43V58.1207C110.437 56.6658 110.713 55.2266 111.241 53.8855C111.77 52.5443 112.541 51.3273 113.51 50.3041C114.479 49.2808 115.627 48.4713 116.89 47.9218C118.152 47.3723 119.503 47.0936 120.867 47.1014H271.557C272.924 47.0876 274.28 47.362 275.547 47.9089C276.814 48.4557 277.967 49.2642 278.941 50.2881C279.915 51.3119 280.689 52.5309 281.22 53.875C281.751 55.2191 282.029 56.662 282.036 58.1207Z" fill="white"/>
<path opacity="0.18" d="M282.036 58.1207V144.957H110.43V58.1207C110.437 56.6658 110.713 55.2266 111.241 53.8855C111.77 52.5443 112.541 51.3273 113.51 50.3041C114.479 49.2808 115.627 48.4713 116.89 47.9218C118.152 47.3723 119.503 47.0936 120.867 47.1014H271.557C272.924 47.0876 274.28 47.362 275.547 47.9089C276.814 48.4557 277.967 49.2642 278.941 50.2881C279.915 51.3119 280.689 52.5309 281.22 53.875C281.751 55.2191 282.029 56.662 282.036 58.1207Z" fill="#1EAC1D"/>
<path d="M149.316 150.946C155.977 148.964 161.703 144.392 165.364 138.13C165.708 137.675 165.949 137.141 166.069 136.569C166.188 135.998 166.182 135.405 166.051 134.836C166.035 134.767 166.006 134.701 165.965 134.645C165.924 134.588 165.872 134.541 165.813 134.507C165.63 134.417 165.42 134.507 165.238 134.672L156.596 140.661C154.286 142.467 151.713 143.853 148.979 144.763C148.558 145.661 148.261 146.619 148.095 147.607C148.118 148.84 148.551 150.023 149.316 150.946Z" fill="#FFBBAB"/>
<path opacity="0.18" d="M181.777 58.4651H125.271V113.861H181.777V58.4651Z" fill="#1EAC1D"/>
<path d="M253.867 79.1113H152.5V166.292H253.867V79.1113Z" fill="white"/>
<path d="M267.461 160.753C267.461 160.753 274.601 165.125 272.609 173.105C270.855 180.081 265.833 184.423 262.621 190.382C260.839 193.676 261.218 199.081 260.419 202.929C259.49 207.643 258.219 212.273 256.617 216.777C256.28 217.676 255.761 218.739 254.849 218.769C254.425 218.707 254.003 218.622 253.587 218.514C253.181 218.559 252.772 218.559 252.366 218.514C251.328 218.26 251.328 216.688 251.567 215.52C252.704 210.171 253.39 204.725 253.615 199.245C253.783 195.023 252.717 190.547 253.839 186.445C254.723 183.211 260.026 165.843 260.026 165.843L267.461 160.753Z" fill="#1EAC1D"/>
<path d="M267.461 160.753C267.461 160.753 274.601 165.125 272.609 173.105C270.855 180.081 265.833 184.423 262.621 190.382C260.839 193.676 261.218 199.081 260.419 202.929C259.49 207.643 258.219 212.273 256.617 216.777C256.28 217.676 255.761 218.739 254.849 218.769C254.425 218.707 254.003 218.622 253.587 218.514C253.181 218.559 252.772 218.559 252.366 218.514C251.328 218.26 251.328 216.688 251.567 215.52C252.704 210.171 253.39 204.725 253.615 199.245C253.783 195.023 252.717 190.547 253.839 186.445C254.723 183.211 260.026 165.843 260.026 165.843L267.461 160.753Z" fill="url(#paint15_linear)"/>
<path d="M266.605 166.188C268.491 166.481 270.246 167.391 271.627 168.793C274.615 171.503 274.433 177.042 273.395 181.1C272.862 183.226 269.691 189.918 269.186 191.819C268.302 195.413 270.07 199.874 270.224 203.512C270.421 208.329 270.266 213.154 269.761 217.945C269.663 218.903 269.397 220.056 268.527 220.341C268.106 220.461 267.657 220.341 267.236 220.431C266.861 220.593 266.471 220.714 266.072 220.79C265.006 220.79 264.669 219.293 264.669 218.17C264.515 212.684 263.91 207.223 262.859 201.851C262.046 197.718 259.956 193.661 260.054 189.394L260.348 178.914C260.461 175.051 259.956 171.143 261.064 167.43C261.154 166.98 261.381 166.575 261.709 166.277C262.023 166.079 262.382 165.976 262.747 165.978C263.821 165.888 264.9 165.888 265.974 165.978L266.605 166.188Z" fill="#1EAC1D"/>
<path opacity="0.16" d="M166.781 164.556C166.315 164.894 165.782 165.109 165.224 165.184C161.532 165.975 157.758 166.237 154.001 165.963C153.632 165.984 153.267 165.873 152.963 165.649C152.658 165.3 152.492 164.838 152.5 164.361C152.399 163.128 152.475 161.886 152.724 160.678C152.724 160.513 161.899 160.528 162.769 160.678C163.989 160.888 168.941 162.699 166.781 164.556Z" fill="#1EAC1D"/>
<path d="M150.171 145.092C151.714 145.691 150.27 149.584 149.863 150.677C149.841 150.82 149.791 150.956 149.715 151.077C149.639 151.197 149.54 151.298 149.424 151.374C149.308 151.449 149.178 151.497 149.043 151.513C148.908 151.53 148.771 151.515 148.642 151.47C146.328 151.246 144.013 150.946 141.712 150.587C141.222 150.538 140.745 150.385 140.31 150.138C140.037 149.931 139.806 149.668 139.631 149.365C139.455 149.061 139.337 148.723 139.285 148.371C139.075 147.218 138.963 144.463 139.903 143.58C140.576 142.936 141.937 143.4 142.821 143.49C145.323 143.703 147.791 144.241 150.171 145.092Z" fill="white"/>
<path d="M149.68 146.724C151.223 147.323 149.779 151.216 149.358 152.309C149.292 152.589 149.138 152.837 148.923 153.012C148.682 153.131 148.411 153.163 148.151 153.102C145.823 152.878 143.522 152.578 141.221 152.234C140.707 152.182 140.207 152.024 139.748 151.77C139.478 151.563 139.249 151.299 139.075 150.996C138.902 150.692 138.787 150.355 138.738 150.003C138.514 148.85 138.416 146.095 139.356 145.212C140.029 144.583 141.376 145.032 142.273 145.122C144.794 145.332 147.282 145.87 149.68 146.724Z" fill="url(#paint16_linear)"/>
<path d="M145.668 130.914C145.949 131.408 146.496 131.692 146.678 132.216C146.861 132.74 146.482 133.534 146.257 134.178C145.963 135.076 146.061 136.094 145.767 136.992C145.711 137.19 145.604 137.367 145.458 137.501C145.323 137.599 145.17 137.666 145.009 137.696C144.382 137.833 143.739 137.874 143.101 137.816C142.983 137.77 142.854 137.77 142.736 137.816C142.641 137.903 142.581 138.027 142.568 138.16C142.175 139.867 142.175 141.649 142.568 143.355C142.708 143.909 142.863 144.598 142.47 145.002C142.331 145.134 142.161 145.222 141.979 145.257C141.357 145.317 140.732 145.198 140.169 144.911C139.606 144.623 139.127 144.179 138.78 143.625C138.045 142.709 137.414 141.704 136.901 140.631C136.746 140.337 136.637 140.018 136.578 139.687C136.564 139.256 136.621 138.825 136.746 138.415C137.096 137 137.308 135.55 137.378 134.088C137.303 132.222 137.516 130.355 138.009 128.563C138.204 127.955 138.578 127.43 139.075 127.066C139.661 126.773 140.313 126.664 140.955 126.752C142.238 126.655 143.506 127.096 144.49 127.979C144.813 128.384 145.332 130.255 145.668 130.914Z" fill="#FFBBAB"/>
<path d="M136.76 139.927H136.859C139.173 140.541 142.54 142.787 143.298 145.287C144.404 148.694 144.712 152.338 144.195 155.902C143.718 158.163 142.428 160.124 141.895 162.325C141.512 164.763 140.968 167.17 140.267 169.526C139.938 170.614 139.288 171.559 138.416 172.221C137.622 172.638 136.746 172.843 135.863 172.82C133.267 172.97 129.62 173.913 127.446 172.012C126.662 171.228 126.057 170.264 125.677 169.192C125.298 168.12 125.154 166.969 125.257 165.828C125.482 163.548 126.041 161.321 126.913 159.226L130.518 149.194C131.416 146.814 133.52 139.238 136.76 139.927Z" fill="white"/>
<path d="M134.867 164.69C135.065 165.05 135.198 165.446 135.259 165.858C135.259 166.158 135.216 166.455 135.133 166.742C134.761 168.372 134.606 170.05 134.67 171.727C134.654 171.877 134.667 172.028 134.708 172.173C134.75 172.317 134.818 172.45 134.909 172.566C135.111 172.724 135.359 172.804 135.61 172.79C136.511 172.954 137.437 172.856 138.289 172.506C139.214 171.901 139.909 170.968 140.253 169.871C141.398 166.821 142.271 163.663 142.863 160.438C143.014 159.921 143.062 159.375 143.003 158.836C142.902 158.433 142.725 158.055 142.484 157.726C142.243 157.397 141.942 157.123 141.6 156.92C140.969 156.456 140.197 156.126 139.65 155.632C138.458 154.644 137.574 152.878 135.947 152.638C135.382 152.59 134.82 152.756 134.358 153.107C133.896 153.457 133.565 153.969 133.422 154.554C132.44 157.549 133.548 161.846 134.867 164.69Z" fill="url(#paint17_linear)"/>
<path d="M138.78 147.248C138.78 147.248 142.077 156.785 142.736 157.489C143.396 158.193 136.368 162.4 136.368 162.4C136.368 162.4 131.794 153.132 132.019 149.105C132.243 145.077 136.143 143.46 138.78 147.248Z" fill="white"/>
<path d="M136.368 161.112C136.431 161.573 136.579 162.016 136.803 162.416C137.027 162.816 137.323 163.165 137.673 163.444C138.024 163.722 138.422 163.923 138.845 164.037C139.269 164.151 139.709 164.174 140.141 164.106L146.117 164.017C148.923 164.017 151.616 163.882 154.366 163.897C155.038 163.995 155.697 164.176 156.33 164.436C157.186 164.64 158.067 164.696 158.939 164.601C160.659 164.406 162.271 163.611 163.526 162.34C163.95 162.002 164.267 161.535 164.435 161C164.603 160.464 164.614 159.887 164.466 159.345C164.408 159.202 164.31 159.082 164.185 159.001C164.074 158.978 163.96 158.978 163.849 159.001C162.207 159.302 160.528 159.271 158.897 158.911C159.031 158.688 159.1 158.428 159.093 158.163C159.093 157.908 158.841 157.654 158.602 157.713C158.476 157.76 158.364 157.843 158.28 157.953C157.88 158.434 157.379 158.808 156.819 159.045C156.258 159.282 155.653 159.374 155.053 159.315C150.522 159.091 146.061 158.058 141.53 157.818C140.472 157.699 139.401 157.817 138.388 158.163C137.855 158.447 137.394 158.862 137.042 159.376C136.691 159.889 136.459 160.484 136.368 161.112Z" fill="#FFBBAB"/>
<path d="M259.689 138.28C258.578 138.813 257.562 139.547 256.687 140.451C256.236 140.894 255.878 141.434 255.636 142.035C255.394 142.636 255.274 143.285 255.284 143.939C255.55 145.502 256.368 146.896 257.571 147.832C258.833 149.015 260.376 150.258 260.475 152.069C261.386 151.351 262.214 150.572 263.14 149.823C264.857 148.761 266.654 147.855 268.513 147.113C270.39 146.358 271.962 144.929 272.96 143.071C273.419 141.87 273.684 140.594 273.745 139.298C273.925 137.909 273.958 136.503 273.844 135.106C273.718 133.701 273.143 132.385 272.216 131.378C270.795 130.215 269.12 129.457 267.348 129.177C266.35 129.225 265.386 129.576 264.568 130.188C263.751 130.801 263.114 131.65 262.733 132.636C262.368 133.684 262.537 134.881 262.172 135.915C261.656 137.011 260.768 137.856 259.689 138.28Z" fill="#FC682D"/>
<path d="M145.149 126.482C145.668 126.377 146.047 127.126 145.851 127.635C145.722 127.883 145.539 128.093 145.316 128.247C145.093 128.402 144.839 128.495 144.574 128.518C144.051 128.568 143.531 128.648 143.017 128.758C142.759 128.825 142.527 128.977 142.353 129.192C142.18 129.406 142.074 129.673 142.049 129.956C141.761 129.912 141.468 129.982 141.225 130.153C140.982 130.324 140.806 130.584 140.73 130.884C140.584 131.488 140.584 132.122 140.73 132.726C140.562 132.92 140.267 132.726 140.113 132.591C139.959 132.456 139.861 132.157 139.664 132.022C139.215 131.767 138.682 132.366 138.738 132.905C138.869 133.43 139.16 133.894 139.566 134.223C139.663 134.301 139.741 134.404 139.79 134.522C139.931 134.971 139.37 135.286 138.935 135.391C138.97 135.739 138.931 136.092 138.823 136.424C138.77 136.591 138.671 136.737 138.538 136.842C138.405 136.946 138.244 137.004 138.079 137.007C137.784 137.007 137.546 136.753 137.279 136.633C137.013 136.513 136.592 136.633 136.564 136.903C136.115 135.9 136.564 134.956 136.396 133.908C136.227 132.86 135.498 133.354 134.993 132.77C134.726 132.441 134.74 131.947 134.614 131.528C134.488 131.109 134.039 130.555 133.927 130.031C133.73 129.102 134.46 128.264 135.119 127.635C135.049 127.461 135.032 127.268 135.07 127.083C135.108 126.898 135.198 126.73 135.33 126.602C135.603 126.365 135.934 126.215 136.283 126.168C136.374 126.155 136.461 126.119 136.536 126.063C136.648 125.943 136.62 125.749 136.536 125.584C136.326 122.754 140.646 123.533 142.231 123.683C142.894 123.746 143.534 123.977 144.097 124.356C144.42 124.536 145.738 126.362 145.149 126.482Z" fill="#473F47"/>
<path opacity="0.16" d="M245.422 130.12C245.289 130.903 245.289 131.704 245.422 132.486C245.723 133.587 246.24 134.608 246.938 135.48C249.716 139.599 251.896 144.142 253.404 148.955C253.966 146.299 254.179 143.573 254.036 140.855C254.062 139.902 253.996 138.949 253.839 138.011C253.499 136.718 253.029 135.468 252.437 134.283C251.619 132.365 251.002 130.356 250.599 128.294C250.318 126.797 249.841 123.203 247.709 123.443C245.871 123.757 245.563 128.668 245.422 130.12Z" fill="#1EAC1D"/>
<path d="M261.443 127.081C261.176 127.56 260.615 127.845 260.433 128.384C260.25 128.923 260.643 129.701 260.853 130.345C261.162 131.243 261.064 132.261 261.358 133.16C261.408 133.356 261.511 133.533 261.653 133.669C261.787 133.766 261.941 133.827 262.102 133.848C262.732 134 263.381 134.041 264.024 133.968C264.143 133.93 264.27 133.93 264.389 133.968C264.482 134.057 264.542 134.18 264.557 134.312C264.922 136.026 264.893 137.809 264.473 139.508C264.346 140.062 264.192 140.75 264.585 141.155C264.724 141.286 264.893 141.374 265.076 141.409C265.698 141.462 266.322 141.337 266.884 141.048C267.446 140.758 267.926 140.315 268.274 139.762C269.002 138.844 269.628 137.839 270.14 136.768C270.295 136.474 270.404 136.156 270.463 135.825C270.49 135.388 270.432 134.949 270.294 134.537C269.955 133.125 269.748 131.681 269.677 130.225C269.755 128.353 269.536 126.48 269.032 124.686C268.84 124.079 268.471 123.555 267.98 123.188C267.388 122.896 266.732 122.788 266.086 122.874C264.806 122.77 263.54 123.212 262.565 124.102C262.312 124.551 261.779 126.467 261.443 127.081Z" fill="#FFBBAB"/>
<path d="M270.364 136.064C270.364 136.064 265.132 138.954 263.547 141.215C261.962 143.475 259.338 145.152 260.376 149.449C261.19 152.923 260.306 156.156 260.264 159.6C260.264 160.543 260.643 161.307 260.629 162.265C260.629 163.942 259.226 165.424 259.759 167.161C260.166 168.583 261.709 169.197 263.056 169.601L268.316 171.233C269.445 171.748 270.715 171.78 271.866 171.323C273.184 170.544 273.479 168.673 273.605 167.071C273.914 162.924 273.801 157.938 275.401 154.06C276.387 151.859 276.72 149.388 276.355 146.979C276.018 143.835 274.741 135.51 270.364 136.064Z" fill="white"/>
<path d="M263.126 124.072C263.232 124.994 263.645 125.844 264.29 126.467C264.908 127.081 265.693 127.5 266.31 128.099C266.653 128.371 266.926 128.73 267.105 129.143C267.283 129.556 267.362 130.01 267.334 130.465C267.581 130.346 267.86 130.328 268.118 130.413C268.377 130.499 268.597 130.682 268.737 130.929C268.808 131.097 268.833 131.284 268.808 131.467C268.783 131.65 268.71 131.822 268.597 131.962C268.481 132.096 268.34 132.201 268.183 132.271C268.025 132.341 267.855 132.373 267.685 132.366C268.347 132.651 268.914 133.142 269.312 133.773C269.761 134.477 269.986 135.271 270.393 136.064C270.902 136.805 271.534 137.439 272.258 137.936C272.595 138.171 272.874 138.49 273.072 138.864C273.221 139.425 273.403 139.975 273.619 140.511C274.083 141.215 274.584 141.889 275.12 142.532C275.832 143.655 276.24 144.966 276.298 146.32C276.263 145.917 276.263 145.511 276.298 145.107C276.425 144.868 276.551 144.628 276.663 144.389C276.869 143.95 277.029 143.488 277.14 143.011C277.294 141.921 277.323 140.815 277.224 139.717C277.224 137.367 279.3 132.935 277.631 130.914C276.962 130.326 276.254 129.791 275.513 129.312C274.11 128.009 273.829 125.719 272.904 123.937C272.494 123.153 271.942 122.465 271.279 121.912C270.617 121.359 269.857 120.953 269.046 120.718C266.815 120.074 262.859 120.808 263.126 124.072Z" fill="#FC682D"/>
<path d="M270.196 139.702C270.196 139.702 260.783 141.319 259.899 141.065C259.016 140.81 259.016 149.389 259.016 149.389C259.016 149.389 268.835 149.075 272.006 146.889C275.176 144.703 274.559 140.226 270.196 139.702Z" fill="white"/>
<path d="M260.082 148.76C259.674 148.932 259.238 149.016 258.8 149.007C258.362 148.998 257.929 148.897 257.527 148.709C257.126 148.521 256.763 148.251 256.46 147.912C256.157 147.574 255.919 147.176 255.761 146.739L248.228 132.037C248.228 130.749 247.541 129.342 247.919 128.129C248.116 127.545 248.509 127.066 248.705 126.497C248.958 125.747 248.958 124.927 248.705 124.177C248.429 123.45 248.081 122.758 247.667 122.11C247.743 121.89 247.892 121.706 248.085 121.593C248.279 121.48 248.504 121.446 248.719 121.497C249.144 121.62 249.525 121.875 249.813 122.23C250.454 122.939 250.957 123.777 251.294 124.694C251.631 125.611 251.796 126.59 251.777 127.575C251.693 128.176 251.693 128.786 251.777 129.387C251.895 129.795 252.075 130.179 252.31 130.525C254.723 134.627 257.753 138.265 260.166 142.367C260.776 143.3 261.205 144.354 261.429 145.467C261.461 146.09 261.355 146.712 261.122 147.284C260.888 147.856 260.532 148.362 260.082 148.76Z" fill="#FFBBAB"/>
<path d="M248.018 156.276H159.991V90.8342H248.088L248.018 156.276ZM160.706 155.438H247.232V91.6727H160.706V155.438Z" fill="#1EAC1D"/>
<path d="M167.847 144.523L164.564 140.9L180.388 124.581L190.614 129.581L208.36 112.004L217.689 118.293L235.869 102.422L238.857 106.315L218.054 124.491L208.907 118.338L191.512 135.57L181.356 130.6L167.847 144.523Z" fill="#1EAC1D"/>
<path d="M242.182 113.247H237.468V104.653H229.192V99.6077H242.182V113.247Z" fill="#1EAC1D"/>
</g>
<defs>
<linearGradient id="paint0_linear" x1="117.599" y1="159.371" x2="85.1476" y2="278.556" gradientUnits="userSpaceOnUse">
<stop offset="0.01"/>
<stop offset="0.13" stop-opacity="0.69"/>
<stop offset="0.25" stop-opacity="0.32"/>
<stop offset="1" stop-opacity="0"/>
</linearGradient>
<linearGradient id="paint1_linear" x1="22.0803" y1="185.696" x2="97.7771" y2="227.866" gradientUnits="userSpaceOnUse">
<stop offset="0.01"/>
<stop offset="0.08" stop-opacity="0.69"/>
<stop offset="0.21" stop-opacity="0.32"/>
<stop offset="1" stop-opacity="0"/>
</linearGradient>
<linearGradient id="paint2_linear" x1="3685.77" y1="7440.08" x2="3415.38" y2="7467.13" gradientUnits="userSpaceOnUse">
<stop offset="0.01"/>
<stop offset="0.08" stop-opacity="0.69"/>
<stop offset="0.21" stop-opacity="0.32"/>
<stop offset="1" stop-opacity="0"/>
</linearGradient>
<linearGradient id="paint3_linear" x1="3015.42" y1="6600.52" x2="3109.54" y2="6603.01" gradientUnits="userSpaceOnUse">
<stop offset="0.01"/>
<stop offset="0.08" stop-opacity="0.69"/>
<stop offset="0.21" stop-opacity="0.32"/>
<stop offset="1" stop-opacity="0"/>
</linearGradient>
<linearGradient id="paint4_linear" x1="11089.5" y1="8005.57" x2="4434.07" y2="10029" gradientUnits="userSpaceOnUse">
<stop offset="0.01"/>
<stop offset="0.13" stop-opacity="0.69"/>
<stop offset="0.25" stop-opacity="0.32"/>
<stop offset="1" stop-opacity="0"/>
</linearGradient>
<linearGradient id="paint5_linear" x1="2093.29" y1="2918.5" x2="1900.72" y2="1814.21" gradientUnits="userSpaceOnUse">
<stop offset="0.01"/>
<stop offset="0.08" stop-opacity="0.69"/>
<stop offset="0.21" stop-opacity="0.32"/>
<stop offset="1" stop-opacity="0"/>
</linearGradient>
<linearGradient id="paint6_linear" x1="7248.4" y1="2282.34" x2="7063.61" y2="2596.43" gradientUnits="userSpaceOnUse">
<stop offset="0.01"/>
<stop offset="0.08" stop-opacity="0.69"/>
<stop offset="0.21" stop-opacity="0.32"/>
<stop offset="1" stop-opacity="0"/>
</linearGradient>
<linearGradient id="paint7_linear" x1="11514.5" y1="4145.33" x2="10675.2" y2="4406.08" gradientUnits="userSpaceOnUse">
<stop offset="0.01"/>
<stop offset="0.08" stop-opacity="0.69"/>
<stop offset="0.21" stop-opacity="0.32"/>
<stop offset="1" stop-opacity="0"/>
</linearGradient>
<linearGradient id="paint8_linear" x1="8324.96" y1="3419.07" x2="8387.92" y2="5013.03" gradientUnits="userSpaceOnUse">
<stop offset="0.01"/>
<stop offset="0.08" stop-opacity="0.69"/>
<stop offset="0.21" stop-opacity="0.32"/>
<stop offset="1" stop-opacity="0"/>
</linearGradient>
<linearGradient id="paint9_linear" x1="20240.4" y1="1515.64" x2="20263" y2="3481.06" gradientUnits="userSpaceOnUse">
<stop offset="0.01"/>
<stop offset="0.08" stop-opacity="0.69"/>
<stop offset="0.21" stop-opacity="0.32"/>
<stop offset="1" stop-opacity="0"/>
</linearGradient>
<linearGradient id="paint10_linear" x1="1958.15" y1="3723.52" x2="1558.1" y2="3698.05" gradientUnits="userSpaceOnUse">
<stop offset="0.01"/>
<stop offset="0.08" stop-opacity="0.69"/>
<stop offset="0.21" stop-opacity="0.32"/>
<stop offset="1" stop-opacity="0"/>
</linearGradient>
<linearGradient id="paint11_linear" x1="3162.34" y1="3552.12" x2="5089.52" y2="3184.86" gradientUnits="userSpaceOnUse">
<stop offset="0.01"/>
<stop offset="0.08" stop-opacity="0.69"/>
<stop offset="0.21" stop-opacity="0.32"/>
<stop offset="1" stop-opacity="0"/>
</linearGradient>
<linearGradient id="paint12_linear" x1="2295.32" y1="7737.81" x2="2726.9" y2="7707.99" gradientUnits="userSpaceOnUse">
<stop offset="0.01"/>
<stop offset="0.08" stop-opacity="0.69"/>
<stop offset="0.21" stop-opacity="0.32"/>
<stop offset="1" stop-opacity="0"/>
</linearGradient>
<linearGradient id="paint13_linear" x1="4192.26" y1="3458.35" x2="3266.86" y2="3656.01" gradientUnits="userSpaceOnUse">
<stop offset="0.01"/>
<stop offset="0.08" stop-opacity="0.69"/>
<stop offset="0.21" stop-opacity="0.32"/>
<stop offset="1" stop-opacity="0"/>
</linearGradient>
<linearGradient id="paint14_linear" x1="3396.51" y1="1857.83" x2="3027.17" y2="1747.73" gradientUnits="userSpaceOnUse">
<stop offset="0.01"/>
<stop offset="0.08" stop-opacity="0.69"/>
<stop offset="0.21" stop-opacity="0.32"/>
<stop offset="1" stop-opacity="0"/>
</linearGradient>
<linearGradient id="paint15_linear" x1="5829.22" y1="9370.78" x2="3234.55" y2="9286.23" gradientUnits="userSpaceOnUse">
<stop offset="0.01"/>
<stop offset="0.08" stop-opacity="0.69"/>
<stop offset="0.21" stop-opacity="0.32"/>
<stop offset="1" stop-opacity="0"/>
</linearGradient>
<linearGradient id="paint16_linear" x1="1759.43" y1="1241.71" x2="1859.82" y2="1093.1" gradientUnits="userSpaceOnUse">
<stop offset="0.01"/>
<stop offset="0.08" stop-opacity="0.69"/>
<stop offset="0.21" stop-opacity="0.32"/>
<stop offset="1" stop-opacity="0"/>
</linearGradient>
<linearGradient id="paint17_linear" x1="1398.82" y1="2960.39" x2="1691.07" y2="2943.48" gradientUnits="userSpaceOnUse">
<stop offset="0.01"/>
<stop offset="0.08" stop-opacity="0.69"/>
<stop offset="0.21" stop-opacity="0.32"/>
<stop offset="1" stop-opacity="0"/>
</linearGradient>
<clipPath id="clip0">
<rect width="305" height="250" fill="white"/>
</clipPath>
</defs>
</svg>
