<svg width="24" height="23" viewBox="0 0 24 23" fill="none" xmlns="http://www.w3.org/2000/svg">
<path d="M21 4.3125H3C2.60218 4.3125 2.22064 4.46395 1.93934 4.73353C1.65804 5.00312 1.5 5.36875 1.5 5.75V17.25C1.5 17.6312 1.65804 17.9969 1.93934 18.2665C2.22064 18.536 2.60218 18.6875 3 18.6875H21C21.3978 18.6875 21.7794 18.536 22.0607 18.2665C22.342 17.9969 22.5 17.6312 22.5 17.25V5.75C22.5 5.36875 22.342 5.00312 22.0607 4.73353C21.7794 4.46395 21.3978 4.3125 21 4.3125ZM19.35 5.75L12 10.6231L4.65 5.75H19.35ZM3 17.25V6.40406L11.5725 12.0894C11.698 12.1728 11.8472 12.2176 12 12.2176C12.1528 12.2176 12.302 12.1728 12.4275 12.0894L21 6.40406V17.25H3Z" fill="black" fill-opacity="0.38"/>
</svg>
