<svg width="305" height="250" viewBox="0 0 305 250" fill="none" xmlns="http://www.w3.org/2000/svg">
<g clip-path="url(#clip0)">
<path opacity="0.18" d="M134.072 36.1926C116.944 51.2649 103.201 70.4188 84.9954 83.9711C68.1696 96.503 47.8678 104.028 33.3896 119.473C21.0333 132.66 14.1103 150.459 14.1254 169.001C14.1405 187.544 21.0925 205.33 33.4702 218.495C50.7796 236.905 76.381 243.835 100.914 245.206C125.448 246.577 150.072 243.165 174.615 244.558C197.839 245.876 220.962 251.488 244.135 249.617C267.308 247.747 291.882 236.235 301.05 213.69C311.186 188.744 299.569 160.672 291.559 134.875C285.501 115.377 281.5 95.2327 279.63 74.8087C276.85 44.2602 271.741 1.83885 235.299 0.148802C198.511 -1.32039 162.492 11.5051 134.072 36.1926Z" fill="#1EAC1D"/>
<path d="M238.634 217.219C183.613 224.66 127.866 218.941 72.3912 219.111C68.361 219.111 62.87 220.876 63.5047 225.053C95.7457 233.089 129.226 233.716 162.374 234.311L222.695 235.374C236.488 235.619 250.291 235.863 264.004 235.045C269.132 234.736 274.391 234.237 279.016 231.856C292.003 225.159 285.565 216.348 274.361 214.849C262.522 213.276 250.412 215.625 238.634 217.219Z" fill="url(#paint0_linear)"/>
<path d="M158.344 55.1339V212.659C158.344 219.473 164.066 224.979 171.119 224.968L239.39 224.862C246.442 224.862 252.165 219.313 252.165 212.511V54.9745C252.165 48.1611 246.442 42.6446 239.39 42.6658L171.119 42.7721C164.066 42.7828 158.344 48.3206 158.344 55.1339ZM164.852 55.2402C164.852 51.0417 168.379 47.6297 172.731 47.6297H182.353V48.5651C182.413 49.913 182.977 51.1809 183.921 52.0912C184.865 53.0016 186.113 53.4803 187.391 53.4226L224.095 53.3589C225.373 53.4109 226.619 52.9288 227.563 52.0173C228.506 51.1058 229.07 49.8385 229.133 48.4907V47.5553H239.067C243.42 47.5553 246.946 50.946 246.946 55.1446V212.192C246.946 216.39 243.42 219.792 239.067 219.802L172.731 219.919C168.379 219.919 164.852 216.528 164.852 212.33V55.2402Z" fill="#1EAC1D"/>
<path d="M155.13 58.3652V215.901C155.13 222.715 160.852 228.221 167.905 228.21L236.186 228.093C243.238 228.093 248.961 222.555 248.961 215.742V58.2164C248.961 51.4031 243.238 45.8865 236.186 45.8971L167.905 46.014C160.852 46.0247 155.13 51.5625 155.13 58.3652ZM161.648 58.4821C161.648 54.2304 165.165 50.8716 169.517 50.861H179.139V51.7963C179.199 53.1434 179.763 54.4102 180.708 55.3189C181.652 56.2276 182.9 56.7039 184.177 56.6433H220.871C222.151 56.6952 223.398 56.2117 224.342 55.2979C225.285 54.3842 225.849 53.1142 225.909 51.7645V50.8397H235.853C240.196 50.8397 243.722 54.2304 243.722 58.429V215.434C243.722 219.622 240.196 223.034 235.853 223.044L169.568 223.193C165.215 223.193 161.699 219.802 161.699 215.604L161.648 58.4821Z" fill="white"/>
<path d="M161.648 58.4396V215.561C161.648 219.813 165.165 223.161 169.517 223.15L235.863 223.044C240.206 223.044 243.732 219.622 243.732 215.434V58.344C243.732 54.0923 240.206 50.744 235.863 50.7547H225.919V51.6794C225.859 53.0291 225.296 54.2991 224.352 55.2129C223.409 56.1266 222.161 56.6102 220.881 56.5582H184.187C182.91 56.6189 181.662 56.1425 180.718 55.2339C179.773 54.3252 179.209 53.0583 179.149 51.7113V50.7759H169.568C165.165 50.8716 161.648 54.2836 161.648 58.4396Z" stroke="url(#paint1_linear)" stroke-width="0.45" stroke-miterlimit="10"/>
<path d="M161.648 58.4396V215.561C161.648 219.813 165.165 223.161 169.517 223.15L235.863 223.044C240.206 223.044 243.732 219.622 243.732 215.434V58.344C243.732 54.0923 240.206 50.744 235.863 50.7547H225.919V51.6794C225.859 53.0291 225.296 54.2991 224.352 55.2129C223.409 56.1266 222.161 56.6102 220.881 56.5582H184.187C182.91 56.6189 181.662 56.1425 180.718 55.2339C179.773 54.3252 179.209 53.0583 179.149 51.7113V50.7759H169.568C165.165 50.8716 161.648 54.2836 161.648 58.4396Z" fill="#1EAC1D"/>
<path opacity="0.28" d="M234.1 99.1284H175.21V114.307H234.1V99.1284Z" fill="white"/>
<path opacity="0.28" d="M234.1 76.7219H175.21V91.9005H234.1V76.7219Z" fill="white"/>
<path d="M204.952 107.43V108.397L236.065 132.27C236.065 132.27 236.639 137.893 237.475 138.563C238.784 139.275 240.158 139.845 241.576 140.264V143.995L249.001 149.426L251.349 150.276V142.411L241.193 133.907L238.019 130.081L236.79 131.144L204.952 107.43Z" fill="url(#paint2_linear)"/>
<path d="M197.537 53.1994L210.141 53.1781V52.094L197.537 52.1152V53.1994Z" fill="url(#paint3_linear)"/>
<path d="M194.222 53.8238C194.979 53.816 195.586 53.2149 195.58 52.4811C195.573 51.7474 194.954 51.1589 194.197 51.1667C193.44 51.1745 192.833 51.7756 192.839 52.5094C192.846 53.2431 193.465 53.8317 194.222 53.8238Z" fill="url(#paint4_linear)"/>
<path d="M0 142.963C0.0604519 145.631 1.31987 148.087 2.55913 150.404C8.22146 160.959 14.579 171.365 23.3647 179.199C36.2611 190.721 53.1674 195.685 69.4895 200.34C68.0285 199.585 66.2654 191.656 65.6206 189.913C64.3611 186.49 63.1823 183.046 61.9632 179.613C60.0489 174.182 56.0188 169.813 52.0995 165.795C43.2157 156.78 32.4375 150.107 20.6443 146.322C13.9471 144.183 6.99702 143.052 0 142.963Z" fill="#1EAC1D"/>
<path d="M0 142.963C0.0604519 145.631 1.31987 148.087 2.55913 150.404C8.22146 160.959 14.579 171.365 23.3647 179.199C36.2611 190.721 53.1674 195.685 69.4895 200.34C68.0285 199.585 66.2654 191.656 65.6206 189.913C64.3611 186.49 63.1823 183.046 61.9632 179.613C60.0489 174.182 56.0188 169.813 52.0995 165.795C43.2157 156.78 32.4375 150.107 20.6443 146.322C13.9471 144.183 6.99702 143.052 0 142.963Z" fill="url(#paint5_linear)"/>
<path d="M63.8574 148.873C62.5274 139.052 61.1572 129.082 57.4092 119.983C53.6611 110.884 47.1626 102.594 38.3467 99.1284C38.0981 113.202 37.8429 127.275 37.5809 141.348C37.4399 149.479 37.3089 157.759 39.5154 165.551C43.3843 179.188 56.8449 195.206 69.8219 199.713C71.7463 193.155 68.5222 183.227 67.6054 176.414L63.8574 148.873Z" fill="#1EAC1D"/>
<path d="M63.8574 148.873C62.5274 139.052 61.1572 129.082 57.4092 119.983C53.6611 110.884 47.1626 102.594 38.3467 99.1284C38.0981 113.202 37.8429 127.275 37.5809 141.348C37.4399 149.479 37.3089 157.759 39.5154 165.551C43.3843 179.188 56.8449 195.206 69.8219 199.713C71.7463 193.155 68.5222 183.227 67.6054 176.414L63.8574 148.873Z" fill="url(#paint6_linear)"/>
<path d="M114.063 128.827C113.609 128.827 113.327 128.316 113.216 127.849C113.177 127.371 112.985 126.921 112.672 126.573C112.491 126.424 112.229 126.329 112.158 126.095C112.133 125.99 112.133 125.881 112.158 125.776C112.283 125.235 112.519 124.73 112.85 124.296C113.181 123.863 113.598 123.511 114.073 123.267C114.556 123.714 115.292 123.703 115.755 124.171C116.242 124.748 116.619 125.42 116.864 126.148L121.377 137.458L122.788 140.986C123.33 142.113 123.636 143.349 123.685 144.611C123.701 145.244 123.529 145.866 123.193 146.39C122.857 146.914 122.373 147.314 121.811 147.534C121.424 147.622 121.023 147.619 120.638 147.523C120.253 147.427 119.893 147.242 119.584 146.981C118.969 146.448 118.479 145.771 118.153 145.004C116.985 142.517 116.813 139.69 116.461 136.894C116.108 134.099 115.856 130.867 114.063 128.827Z" fill="#FFBBAB"/>
<path d="M113.629 137.713C113.519 137.618 113.391 137.55 113.254 137.511C113.117 137.473 112.974 137.465 112.833 137.489C112.686 137.546 112.557 137.646 112.461 137.776C111.976 138.376 111.632 139.089 111.457 139.855C111.282 140.621 111.281 141.42 111.453 142.187C111.559 142.855 111.846 143.475 112.279 143.973C112.758 144.416 113.317 144.752 113.922 144.962L118.778 147.003C119.145 147.198 119.557 147.279 119.967 147.236C120.18 147.172 120.378 147.064 120.551 146.918C120.724 146.772 120.868 146.591 120.974 146.386C121.281 145.872 121.477 145.293 121.546 144.691C121.616 144.088 121.558 143.476 121.377 142.9C120.471 139.913 115.957 139.158 113.629 137.713Z" fill="#FFBBAB"/>
<path d="M108.551 130.846L112.41 134.715L115.221 137.532C115.856 138.17 116.662 138.744 116.924 139.658C117.247 140.948 117.133 142.316 116.602 143.527C116.002 144.813 115.559 146.174 115.282 147.577C115.282 147.066 113.74 145.886 113.398 145.599C112.652 144.983 111.866 144.441 111.121 143.835C110.375 143.229 109.448 142.602 109.186 141.815C109.111 141.309 109.087 140.796 109.116 140.285L108.622 132.1L108.551 130.846Z" fill="#1EAC1D"/>
<path d="M108.551 130.846L112.41 134.715L115.221 137.532C115.856 138.17 116.662 138.744 116.924 139.658C117.247 140.948 117.133 142.316 116.602 143.527C116.002 144.813 115.559 146.174 115.282 147.577C115.282 147.066 113.74 145.886 113.398 145.599C112.652 144.983 111.866 144.441 111.121 143.835C110.375 143.229 109.448 142.602 109.186 141.815C109.111 141.309 109.087 140.796 109.116 140.285L108.622 132.1L108.551 130.846Z" fill="url(#paint7_linear)"/>
<path d="M163.784 180.804C162.864 181.771 162.133 182.92 161.635 184.186C161.137 185.452 160.881 186.81 160.883 188.18C160.874 189.645 161.163 191.095 161.729 192.432C162.324 193.867 163.219 195.141 164.346 196.16C165.473 197.18 166.803 197.918 168.238 198.321V200.712H49.0869C46.0083 200.617 43.0858 199.26 40.94 196.93C38.7941 194.599 37.5938 191.477 37.5938 188.228C37.5938 184.979 38.7941 181.857 40.94 179.527C43.0858 177.196 46.0083 175.839 49.0869 175.744H168.238V178.136C166.556 178.595 165.02 179.516 163.784 180.804Z" fill="#1EAC1D"/>
<path d="M168.238 198.278V200.67H49.0869C46.6083 200.673 44.1915 199.854 42.1789 198.328C40.1662 196.802 38.6598 194.646 37.8731 192.166C42.3969 193.006 71.0511 197.821 87.0004 188.223L161.729 192.474C162.334 193.893 163.233 195.151 164.359 196.155C165.486 197.159 166.811 197.885 168.238 198.278Z" fill="url(#paint8_linear)"/>
<path d="M163.784 180.804C162.554 182.1 161.669 183.716 161.219 185.489C160.769 187.261 160.769 189.127 161.221 190.899C161.673 192.672 162.559 194.287 163.791 195.582C165.023 196.877 166.557 197.807 168.238 198.278V198.629H96.9044C94.2804 198.629 91.7638 197.529 89.9083 195.572C88.0528 193.614 87.0104 190.959 87.0104 188.191C87.0104 185.423 88.0528 182.768 89.9083 180.81C91.7638 178.853 94.2804 177.753 96.9044 177.753H168.238V178.093C166.552 178.565 165.015 179.5 163.784 180.804Z" fill="white"/>
<path d="M149.951 195.089C150.377 195.282 150.838 195.37 151.301 195.344L158.354 195.525C158.544 195.536 158.734 195.515 158.918 195.461C159.123 195.351 159.29 195.176 159.397 194.961C159.503 194.746 159.544 194.501 159.512 194.26C159.416 193.629 159.134 193.045 158.705 192.593C158.276 192.141 157.723 191.843 157.125 191.741C155.928 191.551 154.717 191.473 153.508 191.507C153.016 191.506 152.532 191.385 152.093 191.153C151.654 190.92 151.273 190.583 150.979 190.168C150.424 189.435 149.76 188.68 148.843 189.381C147.402 190.54 148.581 194.313 149.951 195.089Z" fill="#FFBBAB"/>
<path d="M114.577 161.437C114.577 161.437 134.274 160.789 139.17 162.957C144.067 165.125 151.674 190.083 151.674 190.083L147.563 191.741C147.563 191.741 140.571 176.201 138.274 174.809C135.976 173.416 111.362 168.314 111.362 168.314C111.362 168.314 109.478 166.794 114.577 161.437Z" fill="#473F47"/>
<path d="M114.577 161.437C114.577 161.437 134.274 160.789 139.17 162.957C144.067 165.125 151.674 190.083 151.674 190.083L147.563 191.741C147.563 191.741 140.571 176.201 138.274 174.809C135.976 173.416 111.362 168.314 111.362 168.314C111.362 168.314 109.478 166.794 114.577 161.437Z" fill="url(#paint9_linear)"/>
<path d="M163.784 205.761C162.857 206.736 162.123 207.896 161.624 209.173C161.126 210.451 160.874 211.82 160.883 213.202C160.881 214.648 161.169 216.079 161.729 217.4C162.323 218.836 163.216 220.112 164.344 221.131C165.471 222.151 166.802 222.889 168.238 223.289V225.68H49.0869C47.5336 225.68 45.9955 225.358 44.5604 224.73C43.1253 224.103 41.8214 223.184 40.723 222.025C39.6246 220.867 38.7533 219.491 38.1589 217.977C37.5645 216.463 37.2585 214.84 37.2585 213.202C37.2585 211.563 37.5645 209.94 38.1589 208.426C38.7533 206.912 39.6246 205.536 40.723 204.378C41.8214 203.219 43.1253 202.3 44.5604 201.673C45.9955 201.046 47.5336 200.723 49.0869 200.723H168.238V203.104C166.559 203.565 165.024 204.481 163.784 205.761Z" fill="#1EAC1D"/>
<path d="M168.238 223.193V225.585H49.0869C46.6083 225.588 44.1915 224.769 42.1789 223.243C40.1662 221.716 38.6598 219.561 37.8731 217.081C42.3969 217.921 71.0511 222.736 87.0004 213.148L161.729 217.347C162.328 218.775 163.224 220.042 164.35 221.054C165.477 222.066 166.806 222.797 168.238 223.193Z" fill="url(#paint10_linear)"/>
<path d="M163.784 205.761C162.564 207.059 161.688 208.672 161.244 210.439C160.8 212.206 160.803 214.065 161.254 215.83C161.705 217.595 162.588 219.204 163.813 220.496C165.039 221.788 166.564 222.718 168.238 223.193V223.544H96.9044C94.2804 223.544 91.7638 222.444 89.9083 220.487C88.0528 218.529 87.0104 215.874 87.0104 213.106C87.0104 210.338 88.0528 207.683 89.9083 205.725C91.7638 203.768 94.2804 202.668 96.9044 202.668H168.238V203.008C166.549 203.496 165.013 204.446 163.784 205.761Z" fill="white"/>
<path d="M144.551 202.381C144.937 202.38 145.322 202.444 145.689 202.572C145.872 202.636 146.034 202.754 146.156 202.913C146.277 203.071 146.353 203.263 146.374 203.465C146.36 203.665 146.299 203.858 146.197 204.026C146.095 204.195 145.955 204.335 145.79 204.432C145.467 204.645 145.105 204.773 144.782 204.996C144.514 205.233 144.228 205.447 143.926 205.633C143.382 205.8 142.802 205.774 142.274 205.559C139.805 204.931 137.251 204.762 134.727 205.06C134.48 205.091 134.229 205.091 133.982 205.06C133.624 204.95 133.298 204.746 133.035 204.467C132.773 204.188 132.582 203.843 132.48 203.465C131.975 201.842 131.823 200.12 132.037 198.427C132.038 198.241 132.083 198.058 132.168 197.895C132.263 197.759 132.392 197.652 132.541 197.587C134.939 196.333 136.249 198.831 138.002 200.043C139.952 201.415 142.211 202.222 144.551 202.381Z" fill="#FFBBAB"/>
<path d="M101.217 162.734C101.217 162.734 100.622 172.173 108.612 175.021C114.153 176.988 120.521 176.626 126.254 176.084C127.261 175.989 128.37 175.733 129.397 175.744C131.412 175.744 130.999 177.147 130.979 178.933C130.979 183.454 130.942 187.971 130.868 192.485C130.684 194.854 131.004 197.236 131.805 199.458L137.699 197.8C137.541 191.257 137.898 184.712 138.767 178.231C139.15 175.425 139.725 171.918 137.941 169.526C136.209 167.385 133.923 165.822 131.362 165.03L115.403 159.715L101.217 162.734Z" fill="#473F47"/>
<path d="M112.713 119.398C113.005 119.919 113.609 120.227 113.811 120.812C114.012 121.397 113.589 122.215 113.347 122.938C113.025 123.905 113.126 124.989 112.803 125.967C112.748 126.18 112.636 126.372 112.481 126.52C112.331 126.622 112.163 126.69 111.987 126.722C111.305 126.871 110.606 126.914 109.912 126.85C109.781 126.801 109.639 126.801 109.509 126.85C109.408 126.947 109.344 127.079 109.327 127.222C108.925 129.065 108.953 130.983 109.408 132.813C109.559 133.408 109.72 134.152 109.297 134.577C109.151 134.728 108.965 134.828 108.763 134.864C107.443 135.204 106.174 134.173 105.277 133.1C104.489 132.124 103.812 131.054 103.262 129.911C103.082 129.583 102.963 129.222 102.909 128.848C102.884 128.402 102.939 127.955 103.07 127.53C103.445 126.006 103.674 124.446 103.756 122.874C103.856 120.865 103.756 118.771 104.441 116.911C104.66 116.274 105.066 115.726 105.599 115.349C106.229 115.041 106.925 114.92 107.614 114.998C109.012 114.901 110.391 115.377 111.463 116.327C111.776 116.677 112.34 118.75 112.713 119.398Z" fill="#FFBBAB"/>
<path d="M114.577 161.437C113.684 162.259 112.631 162.865 111.493 163.212C110.687 163.51 109.861 163.786 109.025 164.063C107.84 164.439 106.681 164.904 105.559 165.455C104.37 165.87 103.484 166.178 102.809 166.39C102.2 166.618 101.582 166.813 100.955 166.975C101.016 166.938 101.08 166.906 101.146 166.879C101.146 166.879 100.743 164.998 100.139 162.362C99.131 157.515 97.4384 150.149 96.6223 147.396C96.2376 145.655 96.1388 143.857 96.3301 142.081C96.7432 136.235 98.9396 128.603 102.97 129.092C102.97 129.092 108.672 132.207 110.395 134.63C111.967 136.873 114.063 138.563 114.083 141.592C114.133 145.844 112.451 149.83 112.773 154.23C112.779 154.872 112.931 155.503 113.216 156.069C113.7 156.867 114.657 157.249 115.131 158.046C115.398 158.599 115.489 159.228 115.389 159.839C115.289 160.45 115.004 161.011 114.577 161.437Z" fill="#1EAC1D"/>
<path d="M108.269 160.597C108.94 161.604 109.211 162.848 109.025 164.062C108.928 164.472 108.718 164.842 108.42 165.125C107.938 165.505 107.374 165.753 106.778 165.848C105.474 166.162 104.145 166.343 102.809 166.39C102.335 166.39 101.861 166.39 101.388 166.39C101.348 164.947 100.925 163.544 100.169 162.341C99.1613 157.494 97.4686 150.128 96.6525 147.375C96.2679 145.634 96.169 143.836 96.3603 142.06C97.0373 141.164 97.5996 140.177 98.0328 139.126C98.3351 138.297 98.8389 137.394 99.6852 137.33C100.532 137.266 101.025 137.925 101.489 138.542C104.37 142.421 106.476 147.215 109.005 151.382C109.135 151.559 109.209 151.774 109.216 151.998C109.158 152.232 109.018 152.434 108.824 152.562C107.735 153.518 106.577 154.687 106.456 156.154C106.335 157.621 107.443 159.205 108.269 160.597Z" fill="url(#paint11_linear)"/>
<path d="M105.388 155.867C105.571 156.442 105.843 156.981 106.194 157.462C107.123 158.408 108.358 158.947 109.65 158.971C111.129 159.132 112.616 159.214 114.103 159.216C115.111 159.216 116.702 158.705 117.549 159.556C117.75 159.768 117.901 160.023 118.113 160.225C118.67 160.677 119.367 160.893 120.068 160.831C121.594 160.86 123.116 160.645 124.581 160.193C124.643 160.188 124.703 160.166 124.753 160.128C124.804 160.09 124.844 160.038 124.869 159.978C124.893 159.918 124.902 159.852 124.894 159.787C124.886 159.722 124.862 159.66 124.823 159.609C124.525 158.677 124.082 157.805 123.513 157.026C123.227 156.639 122.862 156.325 122.445 156.106C122.028 155.887 121.571 155.769 121.105 155.761C120.623 155.82 120.148 155.927 119.685 156.08C118.277 156.296 116.841 156.194 115.473 155.782C113.878 155.554 112.342 154.997 110.949 154.145C110.567 153.814 110.254 153.401 110.033 152.934C109.398 151.672 108.892 150.343 108.521 148.969C108.37 148.437 108.148 147.832 107.645 147.651C107.46 147.607 107.268 147.603 107.082 147.637C106.895 147.672 106.716 147.745 106.557 147.853C105.32 148.45 104.341 149.516 103.816 150.84C103.443 152.2 104.874 154.539 105.388 155.867Z" fill="#FFBBAB"/>
<path d="M105.206 136.99C105.206 136.99 108.803 147.258 109.509 148.012C110.214 148.767 102.577 153.327 102.577 153.327C102.577 153.327 97.5996 143.335 97.8313 139.009C98.0631 134.683 102.395 132.908 105.206 136.99Z" fill="#1EAC1D"/>
<path d="M110.879 116.167C110.765 117.156 110.318 118.069 109.619 118.739C108.944 119.409 108.108 119.855 107.413 120.504C107.041 120.793 106.745 121.176 106.551 121.619C106.357 122.061 106.272 122.548 106.305 123.034C106.035 122.922 105.736 122.913 105.46 123.008C105.185 123.103 104.949 123.296 104.793 123.554C104.728 123.731 104.709 123.922 104.737 124.109C104.765 124.296 104.84 124.471 104.955 124.617C105.079 124.767 105.235 124.886 105.41 124.963C105.584 125.04 105.773 125.075 105.962 125.064C105.239 125.37 104.619 125.895 104.179 126.573C103.06 128.327 101.761 129.645 102.164 131.983C102.466 133.546 103.262 134.96 103.685 136.49C104.083 137.933 104.147 139.456 103.871 140.93C103.594 142.405 102.986 143.787 102.097 144.962C101.208 146.136 100.065 147.068 98.7628 147.678C97.4611 148.289 96.0393 148.56 94.6173 148.469C91.9373 148.31 89.1464 146.471 88.7132 143.676C88.2296 140.487 90.8088 137.67 91.101 134.471C91.2522 132.738 90.7282 130.952 91.101 129.262C91.6552 126.924 93.7811 125.478 95.3931 123.778C98.8489 120.111 98.8691 114.052 104.32 112.511C106.859 111.862 111.131 112.649 110.879 116.167Z" fill="#FC682D"/>
<path d="M121.559 159.524L127.916 142.464H144.722L136.269 162.957L110.526 161.937L111.352 160.289L121.559 159.524Z" fill="#1EAC1D"/>
<path d="M121.559 159.524L127.916 142.464H144.722L136.269 162.957L110.526 161.937L111.352 160.289L121.559 159.524Z" fill="url(#paint12_linear)"/>
<path d="M157.477 191.305C157.079 191.134 156.646 191.076 156.22 191.135C155.794 191.195 155.391 191.371 155.049 191.645C154.706 192.007 154.535 192.506 154.193 192.868C153.704 193.271 153.1 193.488 152.48 193.484C151.496 193.561 150.508 193.503 149.538 193.314C149.379 193.273 149.213 193.273 149.054 193.314C148.927 193.371 148.818 193.467 148.744 193.591C148.671 193.715 148.634 193.859 148.641 194.005C148.661 194.295 148.736 194.577 148.863 194.834C149.005 195.256 149.261 195.625 149.598 195.897C149.937 196.079 150.316 196.164 150.697 196.142C153.307 196.275 155.923 196.211 158.525 195.95C159.178 195.933 159.804 195.678 160.298 195.227C161.749 193.654 158.606 191.688 157.477 191.305Z" fill="#1EAC1D"/>
<path d="M141.155 200.872C140.813 200.872 140.47 200.872 140.148 200.872C140.024 200.85 139.898 200.85 139.775 200.872C139.539 200.976 139.338 201.154 139.201 201.382C138.868 201.828 138.566 202.445 138.062 202.668C137.602 202.866 137.116 202.992 136.621 203.04C135.504 203.139 134.38 203.057 133.286 202.795C133.128 202.754 132.962 202.754 132.803 202.795C132.674 202.851 132.565 202.947 132.491 203.071C132.417 203.195 132.382 203.34 132.39 203.486C132.409 203.776 132.485 204.058 132.611 204.315C132.743 204.814 133.031 205.25 133.428 205.553C133.825 205.856 134.308 206.008 134.798 205.984H138.908C140.178 205.984 141.447 205.984 142.717 205.931C143.575 205.916 144.428 205.787 145.256 205.548C145.828 205.399 146.34 205.06 146.717 204.581C146.896 204.336 146.993 204.035 146.993 203.726C146.993 203.416 146.896 203.115 146.717 202.87C146.463 202.616 146.15 202.437 145.81 202.349L143.14 201.371C142.633 201.169 142.111 201.012 141.578 200.903L141.155 200.872Z" fill="#1EAC1D"/>
<path d="M244.991 130.931H244.921C244.603 130.685 244.322 130.392 244.085 130.06C243.363 129.099 242.478 128.288 241.475 127.668C241.062 127.413 240.468 127.211 240.145 127.594C240.034 127.721 239.984 127.902 239.863 128.019C239.581 128.295 239.128 128.114 238.805 127.902C238.483 127.689 238.07 127.455 237.737 127.668C237.638 127.749 237.559 127.854 237.506 127.975C237.454 128.095 237.429 128.227 237.435 128.359C237.476 128.975 237.663 129.571 237.979 130.091C238.461 131.111 239.013 132.091 239.631 133.025C239.783 133.307 240.005 133.539 240.273 133.697C240.542 133.854 240.846 133.931 241.153 133.918C242.111 133.917 243.054 134.173 243.893 134.662C244.052 134.822 244.252 134.929 244.467 134.97C245.082 135.034 245.294 133.036 245.394 132.579C245.445 132.355 245.717 131.611 245.616 131.388C245.515 131.165 245.193 131.048 244.991 130.931Z" fill="#FFBBAB"/>
<path d="M261.072 170.217L262.049 221.259H268.608L270.502 180.697L274.633 221.259L282.149 222.587L283.872 168.548L261.072 170.217Z" fill="#1EAC1D"/>
<path d="M261.072 170.217L262.049 221.259H268.608L270.502 180.697L274.633 221.259L282.149 222.587L283.872 168.548L261.072 170.217Z" fill="url(#paint13_linear)"/>
<path d="M277.656 220.461V173.15L283.872 168.548L281.776 221.258L277.656 220.461Z" fill="url(#paint14_linear)"/>
<path d="M243.218 136.798L243.359 136.926C244.76 138.202 255.772 148.204 257.465 147.619C259.737 146.537 261.932 145.283 264.034 143.867L264.588 143.516V129.464L257.676 138.159L245.455 130.559L243.218 136.798Z" fill="#1EAC1D"/>
<path d="M243.359 136.926C244.76 138.202 255.772 148.204 257.465 147.619C259.737 146.537 261.932 145.283 264.034 143.867C264.103 143.296 264.126 142.72 264.104 142.145C264.104 140.901 264.517 137.893 262.704 138.616C261.233 139.211 260.165 141.22 258.674 141.975C258.208 142.416 257.63 142.704 257.011 142.804C256.004 142.868 255.198 142.007 254.492 141.252C252.037 138.587 249.155 136.399 245.979 134.79C245.842 134.703 245.685 134.659 245.525 134.662C245.344 134.711 245.185 134.824 245.072 134.981C244.508 135.64 243.934 136.288 243.359 136.926Z" fill="url(#paint15_linear)"/>
<path d="M279.006 125.064C280.756 125.989 282.461 127.007 284.114 128.114C287.62 130.485 286.995 131.58 286.351 135.672C284.99 144.421 284.316 153.273 284.336 162.139C284.471 164.275 284.326 166.422 283.902 168.516C283.54 169.834 282.703 170.94 282.603 172.332C277.192 173.119 264.81 176.052 261.102 170.206C257.555 164.594 263.943 144.696 262.754 135.789C261.565 126.881 272.447 125.935 272.447 125.935L279.006 125.064Z" fill="#1EAC1D"/>
<path d="M271.55 165.976L281.353 172.959L282.955 170.833C283.903 167.236 284.345 163.512 284.265 159.779C284.033 154.209 284.265 156.197 284.265 156.197L270.472 165.402L271.55 165.976Z" fill="url(#paint16_linear)"/>
<path d="M266.663 116.433C266.657 117.023 266.69 117.612 266.764 118.197C267.025 119.413 267.478 120.573 268.104 121.631C268.266 122.003 268.507 122.33 268.809 122.587C269.436 122.914 270.157 122.975 270.825 122.757C270.984 122.72 271.149 122.72 271.308 122.757C271.691 122.917 271.741 123.469 271.721 123.905L271.61 125.935C271.57 126.213 271.616 126.496 271.741 126.743C271.874 126.913 272.054 127.036 272.255 127.094C272.966 127.34 273.726 127.378 274.455 127.204C275.185 127.03 275.855 126.65 276.396 126.105C276.664 125.843 276.883 125.529 277.041 125.181C277.171 124.841 277.252 124.483 277.283 124.118C277.515 122.173 277.283 120.206 277.454 118.261C277.693 116.654 277.737 115.022 277.585 113.403C277.44 112.537 277.093 111.723 276.577 111.032C276.06 110.342 275.388 109.798 274.623 109.449C273.033 108.919 271.322 108.961 269.757 109.566C268.988 109.794 268.231 110.064 267.49 110.374C267.129 110.475 266.816 110.713 266.613 111.044C266.321 111.671 266.613 112.574 266.613 113.244C266.684 114.318 266.663 115.381 266.663 116.433Z" fill="#FFBBAB"/>
<path d="M279.59 109.162C278.139 106.867 274.754 106.824 272.396 106.494C272.059 106.474 271.732 106.361 271.449 106.165C271.38 106.112 271.322 106.044 271.279 105.967C271.235 105.889 271.207 105.803 271.196 105.714C271.184 105.624 271.19 105.534 271.213 105.447C271.236 105.36 271.275 105.279 271.328 105.208L269.535 106.271V104.868C268.92 105.382 268.27 105.847 267.59 106.261V105.006C266.799 105.656 266.209 106.54 265.897 107.546C265.584 108.552 265.564 109.633 265.837 110.651C266.412 112.776 269.454 113 271.157 112.904C271.626 112.861 272.098 112.861 272.568 112.904C273.035 112.959 273.47 113.184 273.797 113.542C274.175 114.216 274.386 114.98 274.411 115.763C274.418 115.81 274.435 115.853 274.462 115.891C274.492 115.895 274.522 115.895 274.552 115.891C275.076 115.955 275.56 115.306 276.043 115.529C276.161 115.598 276.258 115.698 276.327 115.819C276.396 115.941 276.434 116.079 276.436 116.22C276.474 116.56 276.429 116.904 276.305 117.219C276.241 117.341 276.2 117.475 276.185 117.613C276.19 117.704 276.211 117.794 276.245 117.878L276.577 118.846C276.664 119.202 276.867 119.515 277.152 119.728C277.366 119.796 277.593 119.808 277.813 119.762C278.033 119.715 278.238 119.612 278.411 119.462C278.674 119.322 278.904 119.122 279.086 118.878C279.207 118.661 279.289 118.423 279.328 118.176C279.772 115.768 279.954 113.315 279.872 110.863C279.893 110.282 279.797 109.702 279.59 109.162Z" fill="#963637"/>
<path d="M277.293 124.139C277.293 124.139 278.794 125.202 278.754 126.446C278.714 127.689 270.573 151.85 270.573 151.85C270.573 151.85 270.391 128.688 270.573 127.615C270.849 126.568 271.217 125.55 271.671 124.575C271.671 124.575 274.925 127.062 277.293 124.139Z" fill="white"/>
<path d="M274.633 126.318L275.177 128.189L274.26 129.007L273.817 142.134L270.583 151.839L270.502 141.975L273.283 128.943L272.265 127.105L273.605 126.318H274.633Z" fill="#212741"/>
<path d="M268.608 160.48C269.567 161.76 270.655 162.925 271.852 163.956L272.598 164.583C272.869 164.831 273.2 164.993 273.555 165.051C273.8 165.045 274.04 164.984 274.26 164.87C278.999 162.924 283.643 160.728 288.174 158.291C290.078 157.228 292.154 155.921 292.557 153.71C292.661 152.943 292.644 152.164 292.507 151.403C291.789 145.817 290.404 140.349 288.386 135.13C287.811 133.652 287.106 130.804 285.605 129.815L285.424 129.719L285.212 129.613C283.197 128.848 281.444 130.974 280.89 132.802C280.261 135.416 280.342 138.163 281.121 140.731C281.901 143.28 282.477 145.894 282.844 148.544C282.897 148.901 282.862 149.267 282.744 149.607C282.552 149.945 282.286 150.229 281.968 150.436L268.608 160.48Z" fill="#1EAC1D"/>
<path d="M268.608 221.259L268.255 225.021L266.009 225.457L265.001 224.522L263.268 225.957H256.528C256.528 225.957 254.815 222.842 258.543 221.779L262.261 220.716L268.608 221.259Z" fill="#212741"/>
<path d="M281.766 221.259L281.414 225.021L279.167 225.457L278.159 224.522L276.447 225.957H269.706C269.706 225.957 267.993 222.842 271.721 221.779L275.439 220.716L281.766 221.259Z" fill="#212741"/>
<path d="M270.502 180.697L267.49 178.114L265.364 220.716L268.608 221.258L270.502 180.697Z" fill="url(#paint17_linear)"/>
<path d="M271.852 163.956L272.598 164.583C272.869 164.831 273.2 164.993 273.555 165.051C273.8 165.045 274.04 164.984 274.26 164.87C278.999 162.924 283.643 160.728 288.174 158.291C290.078 157.228 292.154 155.921 292.557 153.71C292.661 152.943 292.644 152.164 292.507 151.403C291.789 145.817 290.404 140.349 288.386 135.13C287.811 133.652 287.106 130.804 285.605 129.815L285.424 129.719L285.212 129.613C284.266 129.599 283.339 129.9 282.564 130.472C281.788 131.044 281.202 131.859 280.89 132.802C280.89 132.802 288.063 148.278 287.751 150.617C287.439 152.955 272.386 160.48 272.386 160.48L271.852 163.956Z" fill="url(#paint18_linear)"/>
<path d="M265.283 161.777C264.89 161.882 264.522 162.074 264.205 162.341C264.052 162.479 263.939 162.66 263.878 162.863C263.817 163.066 263.812 163.283 263.862 163.489C263.981 163.728 264.119 163.955 264.276 164.169C264.467 164.53 264.497 164.987 264.669 165.359C265.015 165.926 265.551 166.336 266.17 166.507C267.963 167.188 270.149 167.283 271.6 165.976C272.608 165.03 274.764 161.108 272.437 160.512C271.446 160.449 270.452 160.557 269.495 160.831C268.068 161.024 266.66 161.34 265.283 161.777Z" fill="#FFBBAB"/>
<path d="M205.254 107.079L204.952 107.43L248.639 135.693L248.961 134.928L205.254 107.079Z" fill="white"/>
<path d="M237.455 128.593C237.385 128.248 237.439 127.888 237.606 127.583C237.723 127.448 237.867 127.342 238.027 127.274C238.188 127.206 238.361 127.177 238.533 127.19C238.699 127.175 238.867 127.193 239.027 127.243C239.39 127.381 239.601 127.764 239.833 128.093C239.906 128.195 239.991 128.288 240.085 128.369C240.213 128.459 240.352 128.531 240.498 128.582C240.704 128.649 240.901 128.746 241.082 128.869C241.362 129.093 241.595 129.375 241.767 129.698C241.937 129.955 242.082 130.229 242.201 130.517C242.332 130.89 242.391 131.288 242.372 131.686C242.384 131.821 242.352 131.955 242.281 132.068C242.187 132.176 242.057 132.241 241.918 132.249C241.364 132.296 240.811 132.146 240.347 131.824C239.873 131.526 239.45 131.133 239.007 130.761C238.613 130.542 238.269 130.235 238.001 129.86C237.733 129.485 237.546 129.052 237.455 128.593Z" fill="#FFBBAB"/>
</g>
<defs>
<linearGradient id="paint0_linear" x1="167.321" y1="149.447" x2="197.906" y2="421.041" gradientUnits="userSpaceOnUse">
<stop offset="0.01"/>
<stop offset="0.08" stop-opacity="0.69"/>
<stop offset="0.21" stop-opacity="0.32"/>
<stop offset="1" stop-opacity="0"/>
</linearGradient>
<linearGradient id="paint1_linear" x1="277.108" y1="80.9099" x2="148.303" y2="187.203" gradientUnits="userSpaceOnUse">
<stop stop-color="white"/>
<stop offset="1" stop-color="#CBCBCB"/>
</linearGradient>
<linearGradient id="paint2_linear" x1="11569.9" y1="4976.08" x2="10341.3" y2="9392.36" gradientUnits="userSpaceOnUse">
<stop offset="0.01"/>
<stop offset="0.08" stop-opacity="0.69"/>
<stop offset="0.21" stop-opacity="0.32"/>
<stop offset="1" stop-opacity="0"/>
</linearGradient>
<linearGradient id="paint3_linear" x1="-34014.5" y1="110.246" x2="-34014.5" y2="119.146" gradientUnits="userSpaceOnUse">
<stop stop-color="white"/>
<stop offset="1" stop-color="#CBCBCB"/>
</linearGradient>
<linearGradient id="paint4_linear" x1="-5115.36" y1="798.418" x2="-5116.41" y2="814.091" gradientUnits="userSpaceOnUse">
<stop stop-color="white"/>
<stop offset="1" stop-color="#CBCBCB"/>
</linearGradient>
<linearGradient id="paint5_linear" x1="69.4391" y1="140.466" x2="-36.3647" y2="225.901" gradientUnits="userSpaceOnUse">
<stop offset="0.01"/>
<stop offset="0.13" stop-opacity="0.69"/>
<stop offset="0.25" stop-opacity="0.32"/>
<stop offset="1" stop-opacity="0"/>
</linearGradient>
<linearGradient id="paint6_linear" x1="-274.151" y1="23432.8" x2="8188.76" y2="20874.1" gradientUnits="userSpaceOnUse">
<stop offset="0.01"/>
<stop offset="0.13" stop-opacity="0.69"/>
<stop offset="0.25" stop-opacity="0.32"/>
<stop offset="1" stop-opacity="0"/>
</linearGradient>
<linearGradient id="paint7_linear" x1="1070.37" y1="2871.63" x2="1353.08" y2="2716.7" gradientUnits="userSpaceOnUse">
<stop offset="0.01"/>
<stop offset="0.08" stop-opacity="0.69"/>
<stop offset="0.21" stop-opacity="0.32"/>
<stop offset="1" stop-opacity="0"/>
</linearGradient>
<linearGradient id="paint8_linear" x1="13190.3" y1="1729.02" x2="13226.7" y2="4930.94" gradientUnits="userSpaceOnUse">
<stop offset="0.01"/>
<stop offset="0.08" stop-opacity="0.69"/>
<stop offset="0.21" stop-opacity="0.32"/>
<stop offset="1" stop-opacity="0"/>
</linearGradient>
<linearGradient id="paint9_linear" x1="6306.74" y1="5850.65" x2="4293.68" y2="6635.63" gradientUnits="userSpaceOnUse">
<stop offset="0.01"/>
<stop offset="0.08" stop-opacity="0.69"/>
<stop offset="0.21" stop-opacity="0.32"/>
<stop offset="1" stop-opacity="0"/>
</linearGradient>
<linearGradient id="paint10_linear" x1="13190.3" y1="2044.76" x2="13226.7" y2="5243.82" gradientUnits="userSpaceOnUse">
<stop offset="0.01"/>
<stop offset="0.08" stop-opacity="0.69"/>
<stop offset="0.21" stop-opacity="0.32"/>
<stop offset="1" stop-opacity="0"/>
</linearGradient>
<linearGradient id="paint11_linear" x1="1251.87" y1="4796.39" x2="2179.11" y2="4958.03" gradientUnits="userSpaceOnUse">
<stop offset="0.01"/>
<stop offset="0.08" stop-opacity="0.69"/>
<stop offset="0.21" stop-opacity="0.32"/>
<stop offset="1" stop-opacity="0"/>
</linearGradient>
<linearGradient id="paint12_linear" x1="4166.47" y1="3380.18" x2="4733.96" y2="2064.72" gradientUnits="userSpaceOnUse">
<stop offset="0.01"/>
<stop offset="0.08" stop-opacity="0.69"/>
<stop offset="0.21" stop-opacity="0.32"/>
<stop offset="1" stop-opacity="0"/>
</linearGradient>
<linearGradient id="paint13_linear" x1="-64439.4" y1="10767.1" x2="-66769.1" y2="11351.6" gradientUnits="userSpaceOnUse">
<stop offset="0.01"/>
<stop offset="0.08" stop-opacity="0.69"/>
<stop offset="0.21" stop-opacity="0.32"/>
<stop offset="1" stop-opacity="0"/>
</linearGradient>
<linearGradient id="paint14_linear" x1="-15588" y1="10286.1" x2="-15130.4" y2="10332.3" gradientUnits="userSpaceOnUse">
<stop offset="0.01"/>
<stop offset="0.08" stop-opacity="0.69"/>
<stop offset="0.21" stop-opacity="0.32"/>
<stop offset="1" stop-opacity="0"/>
</linearGradient>
<linearGradient id="paint15_linear" x1="-59390.6" y1="2349.62" x2="-59298.4" y2="1893.68" gradientUnits="userSpaceOnUse">
<stop offset="0.01"/>
<stop offset="0.08" stop-opacity="0.69"/>
<stop offset="0.21" stop-opacity="0.32"/>
<stop offset="1" stop-opacity="0"/>
</linearGradient>
<linearGradient id="paint16_linear" x1="-38111.9" y1="3042.68" x2="-37805" y2="3570.91" gradientUnits="userSpaceOnUse">
<stop offset="0.01"/>
<stop offset="0.08" stop-opacity="0.69"/>
<stop offset="0.21" stop-opacity="0.32"/>
<stop offset="1" stop-opacity="0"/>
</linearGradient>
<linearGradient id="paint17_linear" x1="-12274.6" y1="9242.42" x2="-12434.1" y2="9246.69" gradientUnits="userSpaceOnUse">
<stop offset="0.01"/>
<stop offset="0.08" stop-opacity="0.69"/>
<stop offset="0.21" stop-opacity="0.32"/>
<stop offset="1" stop-opacity="0"/>
</linearGradient>
<linearGradient id="paint18_linear" x1="-59227.1" y1="5503.48" x2="-57808.7" y2="5947.01" gradientUnits="userSpaceOnUse">
<stop offset="0.01"/>
<stop offset="0.08" stop-opacity="0.69"/>
<stop offset="0.21" stop-opacity="0.32"/>
<stop offset="1" stop-opacity="0"/>
</linearGradient>
<clipPath id="clip0">
<rect width="305" height="250" fill="white"/>
</clipPath>
</defs>
</svg>
