<svg width="28" height="21" viewBox="0 0 28 21" fill="none" xmlns="http://www.w3.org/2000/svg">
<path fill-rule="evenodd" clip-rule="evenodd" d="M4.81621 9.05892C4.73784 8.98034 4.64473 8.918 4.54222 8.87546C4.43971 8.83293 4.32982 8.81103 4.21884 8.81103C4.10786 8.81103 3.99797 8.83293 3.89546 8.87546C3.79295 8.918 3.69984 8.98034 3.62146 9.05892L0.246464 12.4339C0.0880306 12.5924 -0.000976562 12.8072 -0.000976562 13.0313C-0.000976562 13.2554 0.0880306 13.4702 0.246464 13.6287C0.404898 13.7871 0.61978 13.8761 0.843839 13.8761C1.0679 13.8761 1.28278 13.7871 1.44121 13.6287L4.21884 10.8494L6.99646 13.6287C7.1549 13.7871 7.36978 13.8761 7.59384 13.8761C7.8179 13.8761 8.03278 13.7871 8.19122 13.6287C8.34965 13.4702 8.43866 13.2554 8.43866 13.0313C8.43866 12.8072 8.34965 12.5924 8.19122 12.4339L4.81621 9.05892ZM26.7537 7.37142C26.6753 7.29284 26.5822 7.2305 26.4797 7.18797C26.3772 7.14543 26.2673 7.12354 26.1563 7.12354C26.0454 7.12354 25.9355 7.14543 25.833 7.18797C25.7305 7.2305 25.6373 7.29284 25.559 7.37142L22.7813 10.1507L20.0037 7.37142C19.8453 7.21298 19.6304 7.12398 19.4063 7.12398C19.1823 7.12398 18.9674 7.21298 18.809 7.37142C18.6505 7.52985 18.5615 7.74473 18.5615 7.96879C18.5615 8.19285 18.6505 8.40773 18.809 8.56617L22.184 11.9412C22.2623 12.0197 22.3555 12.0821 22.458 12.1246C22.5605 12.1672 22.6704 12.189 22.7813 12.189C22.8923 12.189 23.0022 12.1672 23.1047 12.1246C23.2072 12.0821 23.3003 12.0197 23.3787 11.9412L26.7537 8.56617C26.8323 8.48779 26.8946 8.39468 26.9372 8.29217C26.9797 8.18967 27.0016 8.07978 27.0016 7.96879C27.0016 7.85781 26.9797 7.74792 26.9372 7.64541C26.8946 7.5429 26.8323 7.44979 26.7537 7.37142Z" fill="black" fill-opacity="0.38"/>
<path fill-rule="evenodd" clip-rule="evenodd" d="M13.5 2.06252C12.0946 2.06144 10.7112 2.41179 9.47572 3.0817C8.24024 3.7516 7.19187 4.7198 6.426 5.8982C6.30008 6.07674 6.10981 6.19947 5.89523 6.24057C5.68065 6.28167 5.45849 6.23794 5.27551 6.11857C5.09252 5.9992 4.96297 5.81351 4.91411 5.60056C4.86526 5.38762 4.90091 5.16402 5.01356 4.97683C6.20408 3.1473 7.95396 1.75149 10.0024 0.997456C12.0508 0.243425 14.288 0.171552 16.3806 0.792551C18.4731 1.41355 20.309 2.69416 21.6145 4.44351C22.92 6.19285 23.6252 8.31724 23.625 10.5C23.625 10.724 23.536 10.9388 23.3776 11.0972C23.2192 11.2556 23.0044 11.3446 22.7804 11.3446C22.5564 11.3446 22.3416 11.2556 22.1832 11.0972C22.0248 10.9388 21.9358 10.724 21.9358 10.5C21.9358 8.26225 21.0469 6.11614 19.4645 4.5338C17.8822 2.95146 15.7361 2.06252 13.4983 2.06252H13.5ZM4.21875 9.65627C4.44253 9.65627 4.65714 9.74516 4.81537 9.90339C4.97361 10.0616 5.0625 10.2762 5.0625 10.5C5.06187 12.3195 5.64941 14.0904 6.73749 15.5487C7.82557 17.007 9.35589 18.0745 11.1002 18.592C12.8445 19.1094 14.7094 19.0492 16.4167 18.4202C18.124 17.7913 19.5823 16.6273 20.574 15.1018C20.6325 15.0047 20.7099 14.9203 20.8017 14.8538C20.8935 14.7872 20.9978 14.7399 21.1083 14.7145C21.2188 14.6892 21.3333 14.6863 21.4449 14.7062C21.5565 14.7261 21.663 14.7683 21.7579 14.8302C21.8529 14.8921 21.9344 14.9726 21.9976 15.0667C22.0607 15.1609 22.1043 15.2668 22.1256 15.3782C22.1469 15.4895 22.1456 15.604 22.1217 15.7149C22.0978 15.8257 22.0518 15.9306 21.9864 16.0232C20.7959 17.8527 19.046 19.2485 16.9976 20.0026C14.9492 20.7566 12.712 20.8285 10.6194 20.2075C8.52687 19.5865 6.69101 18.3059 5.38552 16.5565C4.08002 14.8072 3.37481 12.6828 3.375 10.5C3.375 10.3891 3.39688 10.2792 3.43939 10.1767C3.4819 10.0743 3.5442 9.98117 3.62273 9.9028C3.70125 9.82442 3.79447 9.76231 3.89703 9.72001C3.99959 9.6777 4.10949 9.65604 4.22044 9.65627H4.21875Z" fill="black" fill-opacity="0.38"/>
</svg>
