<svg width="12" height="12" viewBox="0 0 12 12" fill="none" xmlns="http://www.w3.org/2000/svg">
<path d="M0.140298 6.15658L9.28244 6.18449L3.79609 10.9178C3.70836 10.9941 3.76105 11.1364 3.87667 11.1368L5.25948 11.141C5.32042 11.1412 5.3783 11.1195 5.42373 11.0805L11.344 5.97516C11.3983 5.92845 11.4418 5.87062 11.4717 5.80561C11.5016 5.7406 11.5172 5.66991 11.5175 5.59834C11.5177 5.52677 11.5025 5.45599 11.473 5.3908C11.4435 5.3256 11.4003 5.26752 11.3463 5.22047L5.42303 0.0476793C5.39966 0.0272954 5.37157 0.0162721 5.34188 0.0161815L3.9122 0.011817C3.79658 0.011464 3.74301 0.155051 3.83028 0.230318L9.28607 4.997L0.143924 4.96909C0.0751739 4.96888 0.0187525 5.02495 0.0185426 5.0937L0.0156807 6.0312C0.0154708 6.09995 0.0715488 6.15637 0.140298 6.15658Z" fill="#279F6D"/>
</svg>
