<svg width="15" height="15" viewBox="0 0 15 15" fill="none" xmlns="http://www.w3.org/2000/svg">
<path d="M14.8696 14.235L11.2244 10.5898C12.2022 9.46563 12.7943 7.99889 12.7943 6.39579C12.7943 2.86696 9.92397 0 6.39847 0C2.86965 0 0.00268555 2.87029 0.00268555 6.39579C0.00268555 9.92129 2.87297 12.7916 6.39847 12.7916C8.00158 12.7916 9.46832 12.1996 10.5925 11.2217L14.2377 14.867C14.3242 14.9534 14.4406 15 14.5537 15C14.6668 15 14.7832 14.9568 14.8696 14.867C15.0426 14.694 15.0426 14.408 14.8696 14.235ZM0.897364 6.39579C0.897364 3.36253 3.36521 0.898004 6.39515 0.898004C9.42841 0.898004 11.8929 3.36585 11.8929 6.39579C11.8929 9.42572 9.42841 11.8969 6.39515 11.8969C3.36521 11.8969 0.897364 9.42905 0.897364 6.39579Z" fill="white"/>
</svg>
