<svg width="293" height="267" viewBox="0 0 293 267" fill="none" xmlns="http://www.w3.org/2000/svg">
<g clip-path="url(#clip0)">
<path opacity="0.18" d="M293 161.781C293 167.514 292.366 173.229 291.109 178.822C279.931 228.833 220.349 267 148.542 267C118.917 267 91.3769 260.502 68.4597 249.363C52.6454 241.676 39.028 231.779 28.4477 220.272C23.9491 216.011 19.9901 211.215 16.6589 205.993C-13.7252 158.929 -2.3317 74.9487 49.0737 75.6483C55.2058 75.769 61.3387 75.4558 67.4264 74.711C81.8704 72.85 90.6311 68.4911 95.937 63.7645C97.2394 62.6082 98.4265 61.3286 99.4817 59.9437C106.866 50.1463 117.753 43.5712 129.875 41.5889C237.097 24.4448 276.143 77.8008 288.247 122.757C291.535 134.879 293.121 147.399 292.96 159.956C292.991 160.561 293 161.171 293 161.781Z" fill="#1EAC1D"/>
<path opacity="0.05" d="M77.171 230.048L19.961 210.765C19.961 210.765 -1.09174 184.697 0.080856 140.857L85.2174 175.643C85.2174 175.643 122.237 165.023 144.292 163.961C166.346 162.898 264.121 152.651 264.121 152.651C264.121 152.651 282.99 174.244 274.598 180.849C266.206 187.455 205.801 188.567 205.801 188.567L163.795 163.992L128.487 191.24L101.53 216.595L77.171 230.048Z" fill="#000405"/>
<path d="M64.0523 207.02L62.9651 210.097L71.8786 214.263C71.8786 214.263 80.1631 215.303 82.7105 213.124C84.2558 211.764 85.3849 209.997 85.9677 208.025L64.0523 207.02Z" fill="#333333"/>
<path d="M87.4278 178.158C87.4278 178.158 97.9317 177.975 101.005 181.782C104.078 185.589 93.0347 196.863 93.0347 196.863L67.5656 198.657L87.4278 178.158Z" fill="#1EAC1D"/>
<path d="M87.4278 178.158C87.4278 178.158 97.9317 177.975 101.005 181.782C104.078 185.589 93.0347 196.863 93.0347 196.863L67.5656 198.657L87.4278 178.158Z" fill="url(#paint0_linear)"/>
<path d="M87.0504 194.504C87.0504 194.504 109.119 196.491 112.955 197.903C120.207 200.626 118.05 210.796 114.752 211.882C112.016 212.801 91.2062 220.402 84.5525 222.837C84.0009 223.036 83.3939 223.016 82.8565 222.782C82.319 222.547 81.8921 222.116 81.6637 221.577L79.3814 216.146C79.2562 215.849 79.195 215.529 79.2018 215.206C79.2087 214.884 79.2834 214.566 79.421 214.275C79.5587 213.983 79.7563 213.723 80.0011 213.512C80.2458 213.302 80.5321 213.145 80.8415 213.052L93.9332 209.164C93.9332 209.164 74.4978 211.119 70.5712 210.249C61.8779 208.348 53.3058 197.244 57.8704 187.549C62.435 177.853 87.0504 194.504 87.0504 194.504Z" fill="#1EAC1D"/>
<path d="M87.0504 194.504C87.0504 194.504 109.119 196.491 112.955 197.903C120.207 200.626 118.05 210.796 114.752 211.882C112.016 212.801 91.2062 220.402 84.5525 222.837C84.0009 223.036 83.3939 223.016 82.8565 222.782C82.319 222.547 81.8921 222.116 81.6637 221.577L79.3814 216.146C79.2562 215.849 79.195 215.529 79.2018 215.206C79.2087 214.884 79.2834 214.566 79.421 214.275C79.5587 213.983 79.7563 213.723 80.0011 213.512C80.2458 213.302 80.5321 213.145 80.8415 213.052L93.9332 209.164C93.9332 209.164 74.4978 211.119 70.5712 210.249C61.8779 208.348 53.3058 197.244 57.8704 187.549C62.435 177.853 87.0504 194.504 87.0504 194.504Z" fill="url(#paint1_linear)"/>
<path d="M80.1766 213.904L74.2867 215.249L76.6454 222.052L82.8094 220.631C82.8094 220.631 84.4582 215.37 80.1766 213.904Z" fill="url(#paint2_linear)"/>
<path d="M71.8786 214.263C71.8786 214.263 75.7333 213.447 76.3713 214.756C77.0093 216.066 74.9606 215.98 75.3694 217.837C75.712 219.249 76.1365 220.64 76.6409 222.003L78.5413 221.577L78.9321 223.819C79.0161 224.205 79.2311 224.549 79.5407 224.794C79.8502 225.04 80.2352 225.17 80.6304 225.164C85.0781 225.42 84.4851 229.447 82.9217 229.6L77.1665 230.048L74.125 227.492C73.7609 227.239 73.4733 226.892 73.2938 226.487C72.1841 224.312 68.7742 216.218 71.8786 214.263Z" fill="#333333"/>
<path d="M144.701 139.691L143.681 143.673L148.91 148.296C148.91 148.296 147.414 148.296 146.215 150.628L145.738 155.727C145.738 155.727 149.252 163.315 158.947 156.682L174.671 170.557L209.548 158.297L210.294 153.552L144.701 139.691Z" fill="#3F3D56"/>
<path d="M239.254 143.498L221.903 136.695C220.833 136.096 219.633 135.765 218.406 135.729C217.18 135.693 215.962 135.954 214.859 136.489C213.881 136.95 213.048 137.67 212.451 138.569C211.853 139.469 211.513 140.514 211.467 141.592C210.869 148.14 214.4 178.275 214.4 178.275C215.703 178.778 217.06 179.126 218.444 179.311C219.658 179.552 220.91 179.525 222.112 179.231C223.314 178.938 224.438 178.385 225.403 177.611L225.74 154.942C225.74 154.942 245.297 167.001 252.274 165.997C260.082 164.876 272.644 158.481 264.157 143.651C255.67 128.82 239.254 143.498 239.254 143.498Z" fill="#1EAC1D"/>
<path d="M239.254 143.498L221.903 136.695C220.833 136.096 219.633 135.765 218.406 135.729C217.18 135.693 215.962 135.954 214.859 136.489C213.881 136.95 213.048 137.67 212.451 138.569C211.853 139.469 211.513 140.514 211.467 141.592C210.869 148.14 214.4 178.275 214.4 178.275C215.703 178.778 217.06 179.126 218.444 179.311C219.658 179.552 220.91 179.525 222.112 179.231C223.314 178.938 224.438 178.385 225.403 177.611L225.74 154.942C225.74 154.942 245.297 167.001 252.274 165.997C260.082 164.876 272.644 158.481 264.157 143.651C255.67 128.82 239.254 143.498 239.254 143.498Z" fill="url(#paint3_linear)"/>
<path d="M218.79 181.168L218.484 179.297C219.699 179.49 220.94 179.437 222.134 179.142C223.327 178.847 224.45 178.316 225.434 177.58L225.623 180.643C224.612 181.276 223.461 181.654 222.271 181.745C221.081 181.837 219.886 181.638 218.79 181.168V181.168Z" fill="url(#paint4_linear)"/>
<path d="M218.713 180.594L211.076 183.347C211.076 183.347 206.83 182.311 205.981 184.692C205.424 185.914 205.369 187.305 205.828 188.567C205.828 188.567 207.832 190.361 212.823 189.316C217.815 188.271 225.978 185.728 225.978 185.728L225.672 180.746C224.576 181.245 223.38 181.49 222.175 181.464C220.97 181.437 219.787 181.14 218.713 180.594V180.594Z" fill="#333333"/>
<path d="M170.96 133.247L170.062 135.525C170.062 135.525 172.758 137.906 170.96 138.928C170.96 138.928 180.314 138.35 170.96 133.247Z" fill="#3F3D56"/>
<path d="M224.877 103.622C224.877 103.622 219.783 119.811 218.408 123.282C217.033 126.753 192.943 129.641 192.943 129.641L193.842 140.032L221.274 136.632L229.523 124.726L224.877 103.622Z" fill="#1EAC1D"/>
<path opacity="0.61" d="M224.877 103.622C224.877 103.622 219.783 119.811 218.408 123.282C217.033 126.753 192.943 129.641 192.943 129.641L193.842 140.032L221.274 136.632L229.523 124.726L224.877 103.622Z" fill="url(#paint5_linear)"/>
<path d="M192.912 130.942C191.182 130.64 189.482 130.189 187.831 129.596C185.183 128.91 182.474 128.488 179.744 128.336C179.744 128.336 179.218 130.13 180.642 130.498C182.066 130.865 183.697 131.466 183.697 131.466L177.758 132.063L172.259 132.812C172.259 132.812 172.785 134.605 174.263 134.605C174.69 135.378 175.265 136.059 175.956 136.61C177.002 137.554 177.972 138.578 178.859 139.673C179.605 140.261 180.4 140.785 181.235 141.238C181.541 141.238 193.118 139.893 193.815 138.789L192.912 130.942Z" fill="url(#paint6_linear)"/>
<path d="M238.598 98.2499L244.182 101.344C254.556 105.968 258.325 116.259 264.166 143.722C264.166 143.722 259.26 154.673 241.199 147.31C241.199 147.31 228.943 129.435 226.921 122.735C224.9 116.035 219.81 104.506 229.168 100.098C238.526 95.6893 238.598 98.2499 238.598 98.2499Z" fill="#1EAC1D"/>
<path opacity="0.05" d="M250.571 121.829L257.373 147.449C257.373 147.449 250.432 151.673 241.154 147.296C231.877 142.92 235.161 138.565 232.169 133.247L241.258 128.314L250.571 121.829Z" fill="#000405"/>
<path d="M241.208 147.31C241.208 147.31 243.005 156.238 245.67 158.485C245.67 158.485 228.202 172.091 227.389 181.934C226.252 195.54 269.234 174.441 269.234 174.441L266.259 166.925L247.624 175.172C247.624 175.172 258.963 167.521 264.615 159.866C269.045 153.794 266.637 148.207 264.166 143.866C264.121 143.722 253.424 152.548 241.208 147.31Z" fill="#1EAC1D"/>
<path d="M241.208 147.31C241.208 147.31 243.005 156.238 245.67 158.485C245.67 158.485 228.202 172.091 227.389 181.934C226.252 195.54 269.234 174.441 269.234 174.441L266.259 166.925L247.624 175.172C247.624 175.172 258.963 167.521 264.615 159.866C269.045 153.794 266.637 148.207 264.166 143.866C264.121 143.722 253.424 152.548 241.208 147.31Z" fill="url(#paint7_linear)"/>
<path d="M266.21 166.92L269.436 165.813L271.031 170.033L267.468 172.463L266.21 166.92Z" fill="url(#paint8_linear)"/>
<path d="M270.047 164.844C270.047 164.844 268.128 165.629 268.349 166.136C268.569 166.642 269.247 165.526 270.963 170.051L269.863 170.853L272.253 175.952C271.625 176.425 271.126 177.049 270.803 177.765C270.481 178.482 270.344 179.268 270.406 180.051C270.644 181.293 272.85 181.463 274.616 180.854C276.382 180.244 277.145 176.329 277.145 176.329C277.145 176.329 275.991 166.943 273.614 165.378C271.237 163.813 270.047 164.844 270.047 164.844Z" fill="#333333"/>
<path d="M212.45 155.306L176.392 166.647L159.859 152.942C153.196 159.741 145.177 154.642 146.278 150.673C147.378 146.704 154.769 148.14 154.769 148.14L144.75 139.74L163.494 135.031C163.61 135.691 164.392 138.888 168.943 139.144C174.033 139.435 175.188 135.301 170.96 133.278L182.848 130.188L212.45 155.306Z" fill="#1EAC1D"/>
<path opacity="0.05" d="M202.818 150.853C202.572 150.919 202.339 151.028 202.131 151.175C201.939 151.36 201.767 151.564 201.619 151.785C200.954 152.61 199.871 152.938 198.887 153.328C197.775 153.766 196.719 154.336 195.742 155.023C195.595 155.106 195.48 155.236 195.414 155.391C195.266 155.871 196.012 156.108 196.263 156.543C196.338 156.707 196.363 156.888 196.335 157.066C196.308 157.243 196.23 157.409 196.111 157.543C195.869 157.808 195.581 158.027 195.261 158.189C193.55 159.232 192.056 160.593 190.859 162.198C196.294 159.376 201.96 157.021 207.796 155.158C208.251 155.044 208.677 154.84 209.05 154.557C209.234 154.412 209.369 154.215 209.437 153.991C209.506 153.767 209.504 153.528 209.431 153.306C209.333 153.086 209.679 153.028 209.499 152.857C208.623 152.077 207.149 150.772 205.977 149.817C205.995 149.826 203.739 150.548 202.818 150.853Z" fill="#000405"/>
<path d="M237.812 97.1423C237.463 97.8967 236.968 98.5751 236.356 99.1386C235.744 99.7021 235.027 100.14 234.245 100.426C233.464 100.713 232.633 100.843 231.801 100.809C230.969 100.774 230.152 100.577 229.397 100.228L229.136 100.102C229.136 100.102 223.889 109.237 231.383 108.147C235.354 107.569 238.832 101.667 239.497 98.676L237.812 97.1423Z" fill="#333333"/>
<path d="M238.149 89.8147C238.149 89.9178 237.911 94.4247 237.726 97.6714C237.592 100.184 236.512 102.552 234.703 104.304C233.654 105.391 232.395 106.253 231.001 106.838C230.665 106.963 230.3 106.992 229.948 106.923C229.596 106.854 229.27 106.69 229.006 106.448C228.741 106.204 228.548 105.892 228.448 105.547C228.348 105.201 228.346 104.835 228.44 104.488C228.62 103.811 228.799 103.03 228.943 102.214C229.24 100.519 229.392 98.6849 228.912 97.3889C228.898 97.3402 228.881 97.2923 228.862 97.2454C228.593 96.5772 228.862 95.8463 229.496 95.1108C230.367 94.0794 231.895 93.0345 233.422 92.1511C234.953 91.2857 236.531 90.5057 238.149 89.8147Z" fill="url(#paint9_linear)"/>
<path d="M250.728 106.192C250.088 105.439 249.257 104.872 248.323 104.548C247.389 104.224 246.384 104.156 245.415 104.35C244.445 104.545 243.545 104.995 242.808 105.654C242.072 106.313 241.526 107.157 241.226 108.098C240.903 109.134 240.561 110.376 240.224 111.905C238.427 120.17 230.291 138.144 230.291 138.144L206.659 150.884L213.129 159.149L240.804 145.543C240.804 145.543 253.06 118.52 252.84 113.367C252.912 110.813 252.173 108.301 250.728 106.192V106.192Z" fill="#1EAC1D"/>
<path opacity="0.61" d="M250.728 106.192C250.088 105.439 249.257 104.872 248.323 104.548C247.389 104.224 246.384 104.156 245.415 104.35C244.445 104.545 243.545 104.995 242.808 105.654C242.072 106.313 241.526 107.157 241.226 108.098C240.903 109.134 240.561 110.376 240.224 111.905C238.427 120.17 230.291 138.144 230.291 138.144L206.659 150.884L213.129 159.149L240.804 145.543C240.804 145.543 253.06 118.52 252.84 113.367C252.912 110.813 252.173 108.301 250.728 106.192V106.192Z" fill="url(#paint10_linear)"/>
<path d="M208.681 152.041C206.974 152.499 205.23 152.811 203.47 152.974C200.777 153.461 198.139 154.212 195.594 155.216C195.594 155.216 195.863 157.055 197.292 156.799C198.721 156.543 200.464 156.427 200.464 156.427L195.374 159.472L190.688 162.463C190.688 162.463 191.91 163.875 193.249 163.243C193.968 163.764 194.781 164.14 195.643 164.351C196.982 164.767 198.287 165.284 199.547 165.898C200.472 166.12 201.415 166.263 202.364 166.324C202.638 166.203 212.671 160.082 212.738 158.808L208.681 152.041Z" fill="url(#paint11_linear)"/>
<path d="M129.727 148.758L138.353 152.158V157.261C138.353 157.261 128.019 157.481 128.019 161.952C128.019 166.423 137.764 169.929 144.296 163.961L159.167 172.481L158.628 176.849L113.414 193.177L87.5087 161.629V156.53L129.727 148.758Z" fill="#3F3D56"/>
<path d="M129.727 143.722L138.37 152.14C138.37 152.14 128.037 152.364 128.037 156.835C128.037 161.306 137.782 164.813 144.314 158.839L159.185 172.445L113.89 188.383L87.5087 156.615L105.282 151.189C105.282 151.189 99.63 147.395 105.062 144.861C106.065 144.369 107.154 144.075 108.269 143.996C112.533 143.825 113.211 146.018 113.773 148.418V148.606L129.727 143.722Z" fill="#1EAC1D"/>
<path opacity="0.05" d="M94.6925 154.422C94.6925 154.422 101.881 170.019 105.3 172.607C107.205 174.051 120.373 178.338 131.555 178.943C132.602 179.002 135.873 175.975 137.418 176.374C139.664 176.961 137.009 178.975 137.53 179.002C144.269 179.32 148.003 176.374 148.003 176.374L112.511 189.163L88.7307 155.126L94.6925 154.422Z" fill="#000405"/>
<path d="M129.322 182.342C130.526 180.77 131.904 179.338 133.429 178.073C134.676 177.33 136.018 176.758 137.418 176.374C137.418 176.374 138.047 178.28 136.969 178.638C135.891 178.997 135.271 180.881 135.271 180.881C135.271 180.881 143.115 182.378 144.063 181.916C145.011 181.455 145.101 182.921 143.25 183.195C141.399 183.468 141.452 186.118 140.195 186.334C138.937 186.549 137.072 187.746 135.221 188.19C133.076 188.374 130.916 188.275 128.797 187.894L129.322 182.342Z" fill="url(#paint12_linear)"/>
<path d="M93.3312 159.709C94.3483 154.187 93.6725 148.487 91.3921 143.355C89.1117 138.222 85.3328 133.896 80.5495 130.942C78.8464 129.777 76.894 129.026 74.8483 128.749C66.6311 128.273 57.8704 187.54 57.8704 187.54C57.8704 187.54 61.8285 199.02 73.8105 200.123C84.8805 201.146 87.037 194.495 87.037 194.495L93.3312 159.709Z" fill="#1EAC1D"/>
<path opacity="0.61" d="M93.3312 159.709C94.3483 154.187 93.6725 148.487 91.3921 143.355C89.1117 138.222 85.3328 133.896 80.5495 130.942C78.8464 129.777 76.894 129.026 74.8483 128.749C66.6311 128.273 57.8704 187.54 57.8704 187.54C57.8704 187.54 61.8285 199.02 73.8105 200.123C84.8805 201.146 87.037 194.495 87.037 194.495L93.3312 159.709Z" fill="url(#paint13_linear)"/>
<path d="M129.574 180.831L109.563 178.67C106.859 178.151 104.386 176.799 102.491 174.804C100.597 172.809 99.376 170.271 99.001 167.548L91.6015 145.014C91.1539 143.6 90.3187 142.339 89.1904 141.375C88.0621 140.41 86.6859 139.78 85.2174 139.556C84.0589 139.383 82.8753 139.506 81.7774 139.914C80.6796 140.322 79.7034 141.002 78.9403 141.889C78.1772 142.776 77.6521 143.842 77.4142 144.987C77.1762 146.132 77.2332 147.319 77.5798 148.435L85.2174 175.643C85.577 178.63 86.9535 181.404 89.1166 183.499C91.2798 185.595 94.0983 186.885 97.1006 187.154L128.487 191.24L129.574 180.831Z" fill="#1EAC1D"/>
<path opacity="0.61" d="M129.574 180.831L109.563 178.67C106.859 178.151 104.386 176.799 102.491 174.804C100.597 172.809 99.376 170.271 99.001 167.548L91.6015 145.014C91.1539 143.6 90.3187 142.339 89.1904 141.375C88.0621 140.41 86.6859 139.78 85.2174 139.556C84.0589 139.383 82.8753 139.506 81.7774 139.914C80.6796 140.322 79.7034 141.002 78.9403 141.889C78.1772 142.776 77.6521 143.842 77.4142 144.987C77.1762 146.132 77.2332 147.319 77.5798 148.435L85.2174 175.643C85.577 178.63 86.9535 181.404 89.1166 183.499C91.2798 185.595 94.0983 186.885 97.1006 187.154L128.487 191.24L129.574 180.831Z" fill="url(#paint14_linear)"/>
<path d="M102.703 147.449L102.806 151.933L105.3 151.167C105.3 151.167 102.703 149.368 102.703 147.449Z" fill="#3F3D56"/>
<path d="M74.8483 128.74C74.8483 128.74 76.0523 119.798 76.5465 113.981C77.0407 108.165 78.9546 100.376 88.7352 101.394C98.5158 102.412 98.5113 117.179 95.7932 123.367C93.0751 129.556 89.463 129.354 89.463 129.354C89.463 129.354 84.5929 128.282 84.7592 134.135L74.8483 128.74Z" fill="url(#paint15_linear)"/>
<path d="M74.8483 128.74C74.8483 128.74 76.0523 119.798 76.5465 113.981C77.0407 108.165 78.9546 100.376 88.7352 101.394C98.5158 102.412 98.5113 117.179 95.7932 123.367C93.0751 129.556 89.463 129.354 89.463 129.354C89.463 129.354 84.5929 128.282 84.7592 134.135L74.8483 128.74Z" fill="#F3E4E4"/>
<path d="M78.5457 100.138C77.121 101.502 76.0892 103.222 75.5581 105.12C75.1177 106.66 74.817 108.236 74.6596 109.829L75.6614 108.744C75.6047 111.474 75.3947 114.199 75.0325 116.905C74.663 119.429 74.5126 121.979 74.5832 124.529L76.3803 124.444L78.6266 127.251L81.156 125.547L83.0564 124.547L84.7547 120.376C84.341 120.074 84.0378 119.644 83.891 119.154C83.7442 118.663 83.7619 118.138 83.9415 117.659C84.5705 115.959 86.1114 115.564 86.4709 116.569C86.7462 117.82 86.8966 119.095 86.9201 120.376L89.6157 112.753C89.6157 112.753 91.314 110.385 92.7921 112.022C93.6769 113.009 94.7973 113.757 96.0493 114.197L95.1507 111.645L97.5948 112.273L97.4061 109.367L99.2032 110.641C99.2032 110.641 100.016 105.932 98.4708 103.838C96.9254 101.743 90.8737 93.4202 78.5457 100.138Z" fill="#615353"/>
<path d="M229.945 101.869C229.634 102.026 229.303 102.142 228.961 102.214C229.258 100.519 229.41 98.6849 228.93 97.3889L229.514 95.1108L229.963 93.4157L233.458 92.1511L236.994 90.873C236.114 97.1423 232.757 100.555 229.945 101.869Z" fill="url(#paint16_linear)"/>
<path d="M229.051 71.9576C226.394 72.1159 223.908 73.3201 222.139 75.306C220.37 77.2918 219.463 79.897 219.616 82.5499C219.616 82.8055 219.657 83.0611 219.693 83.3167C220.007 87.3868 221.054 91.3669 222.784 95.066C226.059 100.645 234.325 96.0525 235.633 93.7565C236.94 91.4605 241.882 81.07 239.811 78.1147C238.441 76.1057 234.415 71.7468 229.051 71.9576Z" fill="url(#paint17_linear)"/>
<path d="M220.326 68.0113L222.024 68.8813C221.011 68.8578 220.007 69.0753 219.094 69.5159C218.182 69.9565 217.388 70.6074 216.777 71.415C215.226 72.9634 214.343 75.0554 214.315 77.2448L217.204 75.8994C217.204 75.8994 216.984 79.4511 222.447 79.7247C227.91 79.9982 233.701 80.218 233.701 80.218L231.859 77.6529C231.859 77.6529 235.251 78.9982 235.848 80.2718C236.384 82.2823 236.769 84.3299 236.999 86.3975C236.999 86.3975 238.346 82.8907 238.917 83.6575C239.488 84.4244 238.324 87.6039 237.61 88.299C236.895 88.994 237.017 91.0883 236.949 91.2587C236.882 91.4291 240.346 88.568 240.498 87.5859C240.651 86.6038 244.093 76.6528 241.846 74.581L243.194 74.4823C242.387 73.9343 241.465 73.5783 240.498 73.4419C240.498 73.4419 231.562 61.6523 220.326 68.0113Z" fill="white"/>
<path opacity="0.4" d="M165.511 75.581C165.217 76.0058 164.961 76.456 164.747 76.9263C163.458 79.6798 159.095 89.5277 158.457 98.0616C158.331 100.138 157.444 102.096 155.967 103.563C154.489 105.031 152.523 105.906 150.442 106.021L142.652 106.47L140.105 106.604C138.058 106.725 136.037 106.103 134.415 104.853C132.792 103.602 131.677 101.808 131.277 99.8016C129.682 91.9448 126.285 79.9399 119.685 74.6348C119.685 74.6348 90.5862 48.0375 109.99 18.3773C111.294 16.3733 112.753 14.4736 114.353 12.6955C134.718 -9.80752 168.332 0.443948 176.41 21.346C184.488 42.248 168.723 71.0741 165.511 75.581Z" fill="#1EAC1D"/>
<path d="M159.571 109.694C158.893 111.394 158.111 112.21 158.79 113.336C159.468 114.461 161.422 117.488 151.507 118.834C149.453 119.117 147.385 119.281 145.312 119.327H142.068L140.168 119.242C137.998 119.107 136.245 118.887 135.077 118.699C134.442 118.606 133.834 118.381 133.292 118.038C132.751 117.695 132.287 117.242 131.932 116.708C131.759 116.307 131.7 115.865 131.764 115.433C131.827 115 132.01 114.594 132.292 114.259C132.418 114.142 132.52 114.001 132.592 113.845C132.664 113.688 132.704 113.519 132.71 113.347C132.717 113.175 132.689 113.004 132.629 112.842C132.568 112.681 132.477 112.533 132.359 112.407C132.225 112.267 132.063 112.157 131.883 112.084C131.347 111.581 131.029 110.889 130.997 110.155C130.965 109.421 131.222 108.704 131.712 108.156C131.955 107.905 132.157 107.618 132.31 107.304C132.522 106.819 132.598 106.286 132.529 105.761C132.46 105.236 132.249 104.74 131.919 104.326L131.645 103.99C131.266 103.48 130.99 102.901 130.832 102.286C130.667 101.863 130.617 101.405 130.689 100.957C130.761 100.509 130.951 100.089 131.241 99.7387C131.642 101.744 132.756 103.537 134.377 104.787C135.999 106.036 138.019 106.658 140.064 106.537L142.612 106.385C142.684 106.286 142.742 106.177 142.782 106.062C143.232 104.977 142.221 103.716 142.733 102.026L144.647 101.941C149.352 101.66 154 100.755 158.466 99.2499C158.954 99.6529 159.288 100.211 159.412 100.831C159.535 101.451 159.441 102.095 159.145 102.654C158.968 103.03 158.849 103.431 158.79 103.842C158.674 104.704 158.821 105.581 159.212 106.358C159.257 106.452 159.308 106.544 159.365 106.631C159.637 107.09 159.798 107.606 159.834 108.138C159.87 108.67 159.78 109.203 159.571 109.694V109.694Z" fill="#1EAC1D"/>
<path d="M131.259 99.7298C140.146 97.4308 149.452 97.2617 158.417 99.2365C158.417 99.2365 143.699 105.255 131.259 99.7298Z" fill="#333333"/>
<path d="M144.292 119.165C143.552 119.31 142.798 119.361 142.046 119.318L140.141 119.233C137.971 119.098 136.223 118.878 135.05 118.69C134.415 118.597 133.807 118.372 133.265 118.029C132.724 117.686 132.26 117.233 131.905 116.699C131.731 116.298 131.671 115.857 131.734 115.424C131.797 114.992 131.979 114.585 132.26 114.25C132.42 114.098 132.539 113.908 132.608 113.699C132.677 113.489 132.694 113.266 132.656 113.049C132.615 112.832 132.52 112.629 132.379 112.459C132.239 112.288 132.057 112.157 131.852 112.076C131.315 111.572 130.997 110.879 130.966 110.145C130.935 109.411 131.193 108.694 131.685 108.147C132.186 107.647 132.484 106.979 132.521 106.273C132.558 105.567 132.333 104.872 131.888 104.322C131.389 103.734 131.03 103.041 130.836 102.295C130.671 101.873 130.622 101.414 130.693 100.967C130.764 100.519 130.953 100.098 131.241 99.7477C135.499 101.375 140.046 102.116 144.602 101.923L144.822 102.026C144.822 102.026 143.124 102.672 143.564 104.151C144.004 105.631 144.651 108.3 143.191 110.035C141.731 111.771 144.539 112.246 144.009 114.201V114.389C143.793 114.972 143.628 115.572 143.515 116.183C143.209 117.721 143.353 119.031 144.292 119.165Z" fill="url(#paint18_linear)"/>
<path d="M157.28 114.403C156.022 115.219 151.507 116.753 143.461 116.197C139.689 115.897 135.955 115.237 132.31 114.224C132.436 114.106 132.538 113.966 132.61 113.809C132.682 113.653 132.722 113.483 132.728 113.311C132.734 113.139 132.707 112.968 132.646 112.807C132.586 112.645 132.495 112.497 132.377 112.371C132.243 112.232 132.081 112.122 131.901 112.049C135.808 113.385 139.901 114.102 144.031 114.174C148.668 114.304 153.297 113.731 157.761 112.475C157.761 112.475 159.163 113.179 157.28 114.403Z" fill="url(#paint19_linear)"/>
<path d="M159.199 106.376C157.689 107.636 151.983 109.963 143.735 109.165C139.861 109.025 136.022 108.39 132.31 107.277C132.522 106.793 132.598 106.26 132.529 105.736C132.46 105.212 132.249 104.717 131.919 104.304L131.645 103.963C132.189 104.169 133.105 104.456 134.341 104.779C137.124 105.482 139.966 105.933 142.832 106.125H144.153C149.141 106.325 154.12 105.539 158.803 103.811C158.667 104.686 158.805 105.582 159.199 106.376V106.376Z" fill="url(#paint20_linear)"/>
<path opacity="0.49" d="M144.633 101.905C140.073 102.102 135.52 101.362 131.259 99.7298C129.677 91.9224 126.281 79.9175 119.681 74.6169C119.681 74.6169 90.5817 48.0196 109.986 18.3594C111.29 16.3554 112.748 14.4557 114.348 12.6776L116.963 12.4399C116.963 12.4399 134.367 3.28711 141.749 13.3054C149.13 23.3237 133.02 34.6469 132.175 52.9435C131.33 71.2401 152.298 74.6258 144.633 101.905Z" fill="white"/>
<path d="M157.357 56.5579L156.813 56.1902C157.632 53.7173 157.921 51.1001 157.662 48.5084C157.015 43.0194 153.133 39.6695 146.745 39.091C136.951 38.1627 133.074 43.2077 131.636 46.293C127.485 54.9166 131.241 68.8812 137.225 75.146C144.602 82.8324 141.753 97.3261 140.711 101.604C140.676 101.709 140.653 101.817 140.644 101.927V102.214L142.149 102.725L142.257 102.304C143.15 98.8795 143.668 95.3686 143.802 91.8327C144.067 84.2091 142.239 78.043 138.496 74.007C132.97 68.2265 129.381 54.8808 133.195 46.9836C135.509 42.2525 140.177 40.0731 146.704 40.6785C153.807 41.3512 155.771 45.4186 156.166 48.6967C156.372 50.9424 156.126 53.2066 155.443 55.3561C153.857 54.5565 152.036 54.3528 150.312 54.7821C146.947 55.7059 144.822 59.1858 143.631 61.9303C143.334 62.6126 143.242 63.3668 143.367 64.1004C143.493 64.834 143.829 65.5152 144.337 66.0605C144.832 66.5941 145.471 66.9738 146.177 67.1544C146.883 67.3349 147.626 67.3085 148.317 67.0785C151.35 66.0067 154.513 62.2936 156.292 57.7643L156.467 57.8853C161.409 61.3563 157.882 66.7063 153.825 72.9083C150.937 77.2537 147.351 82.662 146.965 87.9895C146.516 92.761 146.722 96.5324 147.046 101.335L147.068 101.716H148.686L148.663 101.268C148.349 96.4741 148.16 92.7475 148.582 88.1106C148.928 83.2315 152.23 78.2134 155.142 73.7603L155.272 73.5585C159.486 67.0874 163.471 60.9437 157.357 56.5579ZM147.724 65.5269C147.333 65.6606 146.912 65.6761 146.512 65.5716C146.113 65.4671 145.753 65.2472 145.478 64.9394C145.182 64.6254 144.985 64.2308 144.913 63.8054C144.841 63.38 144.897 62.9429 145.074 62.5492C145.927 60.5715 147.796 57.123 150.703 56.3158C151.119 56.2033 151.548 56.146 151.979 56.1454C152.971 56.179 153.943 56.4301 154.827 56.8808C153.133 61.1545 150.254 64.6838 147.724 65.5358V65.5269ZM155.892 56.4997L155.964 56.549L155.892 56.4997Z" fill="white"/>
</g>
<defs>
<linearGradient id="paint0_linear" x1="67.5656" y1="188.405" x2="101.544" y2="188.405" gradientUnits="userSpaceOnUse">
<stop stop-opacity="0"/>
<stop offset="0.91" stop-opacity="0.8"/>
<stop offset="1"/>
</linearGradient>
<linearGradient id="paint1_linear" x1="20966.8" y1="8762.37" x2="18048.8" y2="3454.75" gradientUnits="userSpaceOnUse">
<stop stop-opacity="0"/>
<stop offset="0.91" stop-opacity="0.8"/>
<stop offset="1"/>
</linearGradient>
<linearGradient id="paint2_linear" x1="2294.2" y1="1109.48" x2="2467.8" y2="1109.48" gradientUnits="userSpaceOnUse">
<stop stop-color="#ECC4D7"/>
<stop offset="0.42" stop-color="#EFD4D1"/>
<stop offset="1" stop-color="#F2EAC9"/>
</linearGradient>
<linearGradient id="paint3_linear" x1="28102.2" y1="11897.8" x2="35845.1" y2="9629.44" gradientUnits="userSpaceOnUse">
<stop stop-opacity="0"/>
<stop offset="0.91" stop-opacity="0.8"/>
<stop offset="1"/>
</linearGradient>
<linearGradient id="paint4_linear" x1="4303.43" y1="995.318" x2="4417.01" y2="995.318" gradientUnits="userSpaceOnUse">
<stop stop-color="#ECC4D7"/>
<stop offset="0.42" stop-color="#EFD4D1"/>
<stop offset="1" stop-color="#F2EAC9"/>
</linearGradient>
<linearGradient id="paint5_linear" x1="239.047" y1="139.076" x2="211.959" y2="123.279" gradientUnits="userSpaceOnUse">
<stop offset="0.36" stop-color="#00272E"/>
<stop offset="1" stop-color="#69B9EB" stop-opacity="0"/>
</linearGradient>
<linearGradient id="paint6_linear" x1="10288.2" y1="3939.91" x2="11322.5" y2="3939.91" gradientUnits="userSpaceOnUse">
<stop stop-color="#ECC4D7"/>
<stop offset="0.42" stop-color="#EFD4D1"/>
<stop offset="1" stop-color="#F2EAC9"/>
</linearGradient>
<linearGradient id="paint7_linear" x1="25068.8" y1="10735.7" x2="28932.2" y2="8923.47" gradientUnits="userSpaceOnUse">
<stop stop-opacity="0"/>
<stop offset="0.91" stop-opacity="0.8"/>
<stop offset="1"/>
</linearGradient>
<linearGradient id="paint8_linear" x1="3122.7" y1="-1353.79" x2="3174.42" y2="-1353.79" gradientUnits="userSpaceOnUse">
<stop stop-color="#ECC4D7"/>
<stop offset="0.42" stop-color="#EFD4D1"/>
<stop offset="1" stop-color="#F2EAC9"/>
</linearGradient>
<linearGradient id="paint9_linear" x1="228.391" y1="98.389" x2="238.167" y2="98.389" gradientUnits="userSpaceOnUse">
<stop stop-color="#ECC4D7"/>
<stop offset="0.42" stop-color="#EFD4D1"/>
<stop offset="1" stop-color="#F2EAC9"/>
</linearGradient>
<linearGradient id="paint10_linear" x1="32060.6" y1="14126.9" x2="26608.6" y2="16499" gradientUnits="userSpaceOnUse">
<stop offset="0.36" stop-color="#00272E"/>
<stop offset="1" stop-color="#69B9EB" stop-opacity="0"/>
</linearGradient>
<linearGradient id="paint11_linear" x1="11444.2" y1="3594.53" x2="12526.4" y2="3594.53" gradientUnits="userSpaceOnUse">
<stop stop-color="#ECC4D7"/>
<stop offset="0.42" stop-color="#EFD4D1"/>
<stop offset="1" stop-color="#F2EAC9"/>
</linearGradient>
<linearGradient id="paint12_linear" x1="6063.21" y1="2431.55" x2="6627.82" y2="2431.55" gradientUnits="userSpaceOnUse">
<stop stop-color="#ECC4D7"/>
<stop offset="0.42" stop-color="#EFD4D1"/>
<stop offset="1" stop-color="#F2EAC9"/>
</linearGradient>
<linearGradient id="paint13_linear" x1="6826.21" y1="17061.9" x2="9821.71" y2="16880.8" gradientUnits="userSpaceOnUse">
<stop offset="0.36" stop-color="#00272E"/>
<stop offset="1" stop-color="#69B9EB" stop-opacity="0"/>
</linearGradient>
<linearGradient id="paint14_linear" x1="11841.5" y1="8453.08" x2="17211.3" y2="12248.6" gradientUnits="userSpaceOnUse">
<stop offset="0.36" stop-color="#00272E"/>
<stop offset="1" stop-color="#69B9EB" stop-opacity="0"/>
</linearGradient>
<linearGradient id="paint15_linear" x1="5756.25" y1="11050.3" x2="6882.99" y2="11050.3" gradientUnits="userSpaceOnUse">
<stop stop-color="#ECC4D7"/>
<stop offset="0.42" stop-color="#EFD4D1"/>
<stop offset="0.703125" stop-color="#F0DFCD"/>
<stop offset="0.723958" stop-color="#F2EAC9"/>
<stop offset="0.765625" stop-color="#F2EAC9"/>
<stop offset="0.96875" stop-color="#F8E289"/>
<stop offset="1" stop-color="#F2EAC9"/>
</linearGradient>
<linearGradient id="paint16_linear" x1="5136.84" y1="4540.71" x2="4650.94" y2="3965.85" gradientUnits="userSpaceOnUse">
<stop stop-color="#ECC4D7"/>
<stop offset="0.42" stop-color="#EFD4D1"/>
<stop offset="1" stop-color="#F2EAC9"/>
</linearGradient>
<linearGradient id="paint17_linear" x1="12122.5" y1="10555.5" x2="13077.2" y2="10555.5" gradientUnits="userSpaceOnUse">
<stop stop-color="#F9E5C8"/>
<stop offset="0.42" stop-color="#EFD4D1"/>
<stop offset="0.729167" stop-color="#F1D79C"/>
<stop offset="0.760417" stop-color="#F1D897"/>
<stop offset="0.760517" stop-color="#F1DBA2"/>
<stop offset="0.760617" stop-color="#F1DDA7"/>
<stop offset="0.833333" stop-color="#F2E8CA"/>
<stop offset="0.833433" stop-color="#F2E8CA"/>
<stop offset="0.9375" stop-color="#F2E8CA"/>
<stop offset="1" stop-color="#F2EAC9"/>
</linearGradient>
<linearGradient id="paint18_linear" x1="5981.09" y1="6972.16" x2="5124.69" y2="6994.7" gradientUnits="userSpaceOnUse">
<stop stop-opacity="0"/>
<stop offset="0.91" stop-opacity="0.8"/>
<stop offset="1"/>
</linearGradient>
<linearGradient id="paint19_linear" x1="144.058" y1="97.5997" x2="147.098" y2="142.364" gradientUnits="userSpaceOnUse">
<stop stop-color="#68E1FD" stop-opacity="0"/>
<stop offset="0.02" stop-color="#66DAF6" stop-opacity="0.04"/>
<stop offset="0.18" stop-color="#58A1BC" stop-opacity="0.39"/>
<stop offset="0.35" stop-color="#4D758F" stop-opacity="0.66"/>
<stop offset="0.53" stop-color="#45566F" stop-opacity="0.85"/>
<stop offset="0.73" stop-color="#40435C" stop-opacity="0.96"/>
<stop offset="0.99" stop-color="#3F3D56"/>
</linearGradient>
<linearGradient id="paint20_linear" x1="11386" y1="2191.98" x2="11393.5" y2="1638.84" gradientUnits="userSpaceOnUse">
<stop stop-color="#68E1FD" stop-opacity="0"/>
<stop offset="0.02" stop-color="#66DAF6" stop-opacity="0.04"/>
<stop offset="0.18" stop-color="#58A1BC" stop-opacity="0.39"/>
<stop offset="0.35" stop-color="#4D758F" stop-opacity="0.66"/>
<stop offset="0.53" stop-color="#45566F" stop-opacity="0.85"/>
<stop offset="0.73" stop-color="#40435C" stop-opacity="0.96"/>
<stop offset="0.99" stop-color="#3F3D56"/>
</linearGradient>
<clipPath id="clip0">
<rect width="293" height="267" fill="white"/>
</clipPath>
</defs>
</svg>
