<svg width="28" height="24" viewBox="0 0 28 24" fill="none" xmlns="http://www.w3.org/2000/svg">
<path d="M26.46 1.44H23.24V0.24C23.24 0.108 23.114 0 22.96 0H5.04C4.886 0 4.76 0.108 4.76 0.24V1.44H1.54C1.13157 1.44 0.739861 1.57907 0.451055 1.82662C0.162249 2.07417 0 2.40991 0 2.76V7.2C0 9.651 2.1 11.688 4.837 12.06C5.376 15.546 8.645 18.294 12.74 18.675V21.831H5.88C5.2605 21.831 4.76 22.26 4.76 22.791V23.76C4.76 23.892 4.886 24 5.04 24H22.96C23.114 24 23.24 23.892 23.24 23.76V22.791C23.24 22.26 22.7395 21.831 22.12 21.831H15.26V18.675C19.355 18.294 22.624 15.546 23.163 12.06C25.9 11.688 28 9.651 28 7.2V2.76C28 2.40991 27.8378 2.07417 27.5489 1.82662C27.2601 1.57907 26.8684 1.44 26.46 1.44ZM4.76 9.828C3.4615 9.471 2.52 8.427 2.52 7.2V3.6H4.76V9.828ZM25.48 7.2C25.48 8.43 24.5385 9.474 23.24 9.828V3.6H25.48V7.2Z" fill="white"/>
</svg>
