<svg width="26" height="30" viewBox="0 0 26 30" fill="none" xmlns="http://www.w3.org/2000/svg">
<path d="M13 14C14.3845 14 15.7378 13.5895 16.889 12.8203C18.0401 12.0511 18.9373 10.9579 19.4672 9.67879C19.997 8.3997 20.1356 6.99224 19.8655 5.63437C19.5954 4.2765 18.9287 3.02922 17.9497 2.05026C16.9708 1.07129 15.7235 0.404603 14.3656 0.134506C13.0078 -0.13559 11.6003 0.00303298 10.3212 0.532846C9.04213 1.06266 7.94888 1.95987 7.17971 3.11101C6.41054 4.26216 6 5.61553 6 7C6 8.85652 6.7375 10.637 8.05025 11.9497C9.36301 13.2625 11.1435 14 13 14ZM13 2C13.9889 2 14.9556 2.29325 15.7779 2.84265C16.6001 3.39206 17.241 4.17296 17.6194 5.08659C17.9978 6.00022 18.0969 7.00555 17.9039 7.97545C17.711 8.94536 17.2348 9.83627 16.5355 10.5355C15.8363 11.2348 14.9454 11.711 13.9755 11.9039C13.0055 12.0969 12.0002 11.9978 11.0866 11.6194C10.173 11.241 9.39206 10.6001 8.84265 9.77785C8.29325 8.95561 8 7.98891 8 7C8 5.67392 8.52678 4.40215 9.46447 3.46447C10.4021 2.52679 11.6739 2 13 2Z" fill="black"/>
<path d="M25.47 21.37C23.8663 19.675 21.9338 18.3249 19.7905 17.4022C17.6473 16.4795 15.3384 16.0036 13.005 16.0036C10.6716 16.0036 8.36269 16.4795 6.21946 17.4022C4.07623 18.3249 2.14369 19.675 0.540002 21.37C0.192315 21.7414 -0.000786912 22.2313 2.41031e-06 22.74V28C2.41031e-06 28.5304 0.210716 29.0391 0.585789 29.4142C0.960861 29.7893 1.46957 30 2 30H24C24.5304 30 25.0391 29.7893 25.4142 29.4142C25.7893 29.0391 26 28.5304 26 28V22.74C26.0035 22.2326 25.814 21.7429 25.47 21.37ZM24 28H2V22.73C3.41723 21.2377 5.12329 20.0493 7.01436 19.2373C8.90543 18.4252 10.942 18.0065 13 18.0065C15.0581 18.0065 17.0946 18.4252 18.9856 19.2373C20.8767 20.0493 22.5828 21.2377 24 22.73V28Z" fill="black"/>
</svg>
