<svg width="29" height="29" viewBox="0 0 29 29" fill="none" xmlns="http://www.w3.org/2000/svg">
<path d="M14.5 0C9.50294 0 5.4375 3.25235 5.4375 7.25V11.6H3.625C2.66359 11.6 1.74156 11.9055 1.06174 12.4494C0.381918 12.9932 0 13.7309 0 14.5V26.1C0 26.8691 0.381918 27.6068 1.06174 28.1506C1.74156 28.6945 2.66359 29 3.625 29H25.375C26.3364 29 27.2584 28.6945 27.9383 28.1506C28.6181 27.6068 29 26.8691 29 26.1V14.5C29 13.7309 28.6181 12.9932 27.9383 12.4494C27.2584 11.9055 26.3364 11.6 25.375 11.6H23.5625V7.25C23.5625 3.25235 19.4971 0 14.5 0ZM9.0625 7.25C9.0625 4.8517 11.5021 2.9 14.5 2.9C17.4979 2.9 19.9375 4.8517 19.9375 7.25V11.6H9.0625V7.25ZM16.3125 22.7983V26.1H12.6875V22.7983C12.0538 22.508 11.545 22.0709 11.2281 21.5446C10.9113 21.0183 10.8012 20.4275 10.9125 19.8502C11.0238 19.2728 11.3512 18.736 11.8515 18.3105C12.3518 17.885 13.0016 17.5908 13.7152 17.4667C14.2452 17.3729 14.7947 17.3756 15.3233 17.4744C15.8519 17.5732 16.346 17.7656 16.7692 18.0375C17.1924 18.3094 17.534 18.6539 17.7686 19.0455C18.0033 19.437 18.1251 19.8658 18.125 20.3C18.124 20.8071 17.9559 21.3051 17.6377 21.7437C17.3195 22.1823 16.8624 22.5461 16.3125 22.7983Z" fill="black"/>
</svg>
